<?xml version="1.0" encoding="utf-8"?>
<!-- Generator: Adobe Illustrator 16.0.0, SVG Export Plug-In . SVG Version: 6.00 Build 0)  -->
<!DOCTYPE svg PUBLIC "-//W3C//DTD SVG 1.1//EN" "http://www.w3.org/Graphics/SVG/1.1/DTD/svg11.dtd">
<svg version="1.1" xmlns="http://www.w3.org/2000/svg" xmlns:xlink="http://www.w3.org/1999/xlink" x="0px" y="0px"
	 width="726.504px" height="230.346px" viewBox="0 0 726.504 230.346" enable-background="new 0 0 726.504 230.346"
	 xml:space="preserve">
<g id="Layer_4">
	<g>
		<polygon fill="#EE327E" stroke="#EE327E" stroke-miterlimit="10" points="726.5,117.217 0.5,117.217 0.5,111.812 726.5,117.217 		
			"/>
	</g>
</g>
<g id="Layer_6" display="none">
	<g display="inline">
		<g>
			<g>
				<g>
					<g>
						<g>
							<path fill="#383F56" d="M138.468,224.984c3.063,0.155,1.97-0.335,2.426-0.387c-2.542,0.018-3.109,0.053-3.071,0.188
								C137.864,224.905,138.529,225.043,138.468,224.984z"/>
							<path fill="#383F56" d="M101.236,193.16l0.598,0.748c0,0-1.013-1.686-2.026-3.371c-0.992-1.702-1.984-3.404-1.984-3.404
								s0.845,1.513,1.69,3.025C100.375,191.659,101.236,193.16,101.236,193.16z"/>
							<path fill="#383F56" d="M79.589,148.043c1.36,4.595,7.741,16.437,11.322,24.607l0.483,1.4l2.25,3.382
								C88.879,167.709,82.646,155.052,79.589,148.043z"/>
							<path fill="#383F56" d="M69.563,123.184c0.46,1.611-2.716-5.123,2.617,5.671c-0.226-0.563-0.292-0.726-0.423-1.051
								C71.292,126.825,70.652,125.478,69.563,123.184z"/>
							<path fill="#383F56" d="M71.757,127.804C74.05,132.57,70.478,124.578,71.757,127.804L71.757,127.804z"/>
							<path fill="#383F56" d="M70.197,118.41c0,0-0.117,0.016-0.292,0.039c-0.085,0.012-0.186,0.025-0.293,0.04
								c-0.204,0.007-0.414,0.015-0.628,0.022l-0.323,0.011l-0.078,0.012c-0.395,0.062-0.666,0.124-0.666,0.124
								c0.111,0.041,0.258,0.074,0.398,0.103c0.065,0.013,0.135,0.026,0.205,0.04l0.093,0.018l0.049,0.008
								c0.093,0.003,0.185,0.006,0.275,0.008c0.953,0.022,0.727,0.043,0.815,0.066c0.032,0.022,0.013,0.047-0.056,0.077
								c0.088,0.005,0.232-0.084,0.263-0.002c0.054,0.059,0.098,0.107,0.133,0.144l0.03,0.028l0.015,0.013l0.052,0.09
								c0.075,0.126,0.137,0.229,0.186,0.312c0.103,0.162,0.163,0.235,0.185,0.229c0.022-0.006,0.007-0.091-0.04-0.244
								c-0.025-0.076-0.057-0.17-0.094-0.28c-0.02-0.055-0.041-0.113-0.063-0.176c-0.024-0.065-0.007-0.045-0.013-0.074
								c-0.003-0.07-0.014-0.158-0.034-0.268c-0.012-0.057-0.023-0.117-0.036-0.18C70.258,118.516,70.269,118.401,70.197,118.41z"/>
							<path fill="#383F56" d="M72.726,122.292l-1.668-3.189C71.272,119.699,71.668,120.565,72.726,122.292z"/>
							<path fill="#383F56" d="M68.192,118.216c0,0,0.146-0.014,0.367-0.035l0.089-0.008c0.091-0.002,0.186-0.005,0.283-0.008
								c0.206-0.006,0.422-0.012,0.646-0.019c0.163-0.013,0.337-0.027,0.511-0.041l0.252-0.021l0.126-0.01l0.059,0.097
								c0.079,0.132,0.153,0.255,0.216,0.36c0.068,0.116,0.125,0.212,0.165,0.28c0.097,0.185,0.152,0.291,0.152,0.291
								c-0.039-0.121-0.074-0.228-0.107-0.327c-0.003-0.046-0.006-0.088-0.009-0.13c-0.005-0.082-0.016-0.164-0.049-0.253
								c-0.033-0.089-0.089-0.186-0.178-0.286c-0.045-0.049-0.098-0.1-0.159-0.146c-0.089,0-0.227,0.068-0.348,0.114
								c0.16-0.105,0.078-0.108-0.195-0.064c-0.065,0.011-0.142,0.024-0.229,0.04c-0.042,0.008-0.086,0.016-0.133,0.025
								c-0.123,0.008-0.251,0.017-0.387,0.026C68.469,118.138,68.478,118.178,68.192,118.216z"/>
							<path fill="#383F56" d="M66.69,118.107l-0.14-0.012c0.169,0.51,0.438,1.204,0.495,1.489c0.042,0.17,0.015,0.205-0.134,0.002
								c-0.136-0.175-0.378-0.557-0.809-1.304c1.003,1.93,1.721,3.312,2.173,4.181c0.697,1.311,1.02,1.829,0.984,1.61
								c-0.036-0.218-0.431-1.173-1.178-2.801c-0.235-0.509-0.521-1.126-0.855-1.848c-0.18-0.382-0.391-0.811-0.649-1.313
								C66.6,118.107,66.648,118.109,66.69,118.107z"/>
							<path fill="#383F56" d="M77.838,146.033l2.012,4.817l2.118,3.989C80.914,152.847,77.906,145.645,77.838,146.033z"/>
							<path fill="#383F56" d="M87.554,155.857c0.321,0.33-0.619-2.292-0.661-2.845l-2.321-4.585
								C85.589,150.864,87.609,155.444,87.554,155.857z"/>
							<path fill="#383F56" d="M86.893,153.013l3.477,6.861C87.502,153.636,86.862,152.548,86.893,153.013z"/>
							<path fill="#383F56" d="M73.979,123.062c0,0-0.375-0.694-0.936-1.736c-0.282-0.52-0.61-1.127-0.962-1.778
								c-0.176-0.325-0.359-0.661-0.544-1.002c-0.109-0.185-0.221-0.374-0.332-0.562c-0.103-0.171-0.205-0.341-0.306-0.509
								c-0.014-0.059-0.07-0.048-0.124-0.041l-0.153,0.013l-0.295,0.024c-0.409,0.032-0.593,0.062-1.334,0.088
								c-0.132,0.006-0.259,0.012-0.379,0.018c-0.063,0.006-0.124,0.012-0.18,0.017c-0.11,0.011-0.206,0.02-0.285,0.027
								c-0.154,0.015-0.242,0.023-0.242,0.023s0.105-0.009,0.29-0.024c0.095-0.007,0.21-0.017,0.342-0.027l0.104-0.008
								c0.072-0.002,0.146-0.005,0.223-0.008c0.161-0.006,0.33-0.012,0.506-0.019c0.086-0.003,0.175-0.006,0.265-0.01l0.136-0.01
								c0.094-0.007,0.191-0.014,0.291-0.022c0.207-0.015,0.425-0.03,0.65-0.047c0.142-0.05,0.182,0.067,0.237,0.166l0.173,0.296
								c0.127,0.221,0.256,0.446,0.386,0.671c1.765,3.322,3.531,6.645,3.531,6.645L73.979,123.062z"/>
							<path fill="#383F56" d="M100.131,182.467l-2.245-3.784c0,0,0.977,1.696,1.954,3.392c0.992,1.69,1.985,3.38,1.985,3.38
								L100.131,182.467z"/>
							<path fill="#383F56" d="M109.56,199.817c-1.988-2.675,1.978,4.133-0.023,1.24c2.936,4.613,5.99,8.332,9.199,11.339
								C115.415,209.113,112.547,205.151,109.56,199.817z"/>
							<path fill="#383F56" d="M124.624,216.996c-2.022-1.285-3.969-2.801-5.889-4.6C120.5,214.134,122.441,215.713,124.624,216.996
								z"/>
							<path fill="#383F56" d="M95.862,171.776c0.175,0.576,0.438,1.719,2.225,5.662l-0.927-2.919
								C96.764,173.684,96.317,172.737,95.862,171.776z"/>
							<path fill="#383F56" d="M97.126,174.418l0.034,0.102c1.422,2.971,2.408,5.029,2.831,5.912
								C99.629,179.673,98.767,177.862,97.126,174.418z"/>
							<path fill="#383F56" d="M95.537,171.084c0.12,0.255,0.208,0.442,0.326,0.692C95.775,171.494,95.712,171.33,95.537,171.084z"
								/>
							<path fill="#383F56" d="M82.263,141.405c2.127,3.985,6.321,12.417,2.813,4.001C83.444,142.596,85.459,147.407,82.263,141.405
								z"/>
							<path fill="#383F56" d="M94.418,167.456l-3.368-7.442c-0.035,0.191,0.438,1.598-0.614-0.381L94.418,167.456z"/>
							<polygon fill="#383F56" points="96.247,171.019 94.418,167.456 95.677,170.214 							"/>
							<path fill="#383F56" d="M114.457,206.131c2.326,2.816,4.892,5.972,8.571,8.903c-3.882-3.222-7.01-7.215-9.677-11.083
								C112.891,203.47,111.455,201.916,114.457,206.131z"/>
							<path fill="#383F56" d="M105.335,190.957c0.124,0.214,0.281,0.487,0.396,0.688
								C105.533,191.198,105.359,190.848,105.335,190.957z"/>
							<path fill="#383F56" d="M164.422,209.454c-0.183,0.172-0.342,0.321-0.529,0.496c-0.018,0.058-0.026,0.103-0.055,0.174
								L164.422,209.454z"/>
							<path fill="#383F56" d="M112.965,203.24c-1.928-3.032-3.087-4.816-4.228-6.502c1.374,2.282,2.88,4.687,4.613,7.213
								C113.573,204.162,113.63,204.188,112.965,203.24z"/>
							<path fill="#383F56" d="M137.093,221.428c-1.989-0.317-4.243-0.866-6.479-1.791c0.898,0.42,2.32,0.955,3.631,1.291
								C135.554,221.274,136.733,221.445,137.093,221.428z"/>
							<path fill="#383F56" d="M106.198,192.752c-0.09-0.152-0.173-0.291-0.271-0.457
								C106.404,193.361,106.375,193.213,106.198,192.752z"/>
							<path fill="#383F56" d="M106.198,192.752c0.932,1.577,1.73,2.781,2.54,3.986c-1.1-1.864-2.121-3.595-3.006-5.094
								C105.912,192.047,106.083,192.454,106.198,192.752z"/>
							<path fill="#383F56" d="M169.729,197.084c0.001,0.359-1.068,2.589-2.902,5.437c-1.822,2.844-4.483,6.301-7.543,8.874
								c-1.376,1.395-2.225,2.187-2.533,2.645c-0.315,0.449-0.097,0.554,0.522,0.381c1.224-0.342,4.002-1.981,6.62-4.47
								c0.018-0.153,0.005-0.252,0.628-1.138c0.61-0.892,1.889-2.556,4.09-6.033c-0.874,1.143-3.608,4.82-6.009,7.201
								c-1.186,1.199-2.233,2.101-2.671,2.388c-0.441,0.285-0.216,0.01,0.955-1.278c1.875-1.984,3.044-3.496,3.927-4.61
								c0.874-1.119,1.448-1.855,1.917-2.456c0.942-1.194,1.529-1.796,3.027-3.957c-1.415,1.745,0.327-1.226,1.973-4.515
								c1.662-3.284,3.268-6.87,2.404-6.012c0,0-1.038,2.099-2.136,4.168c-1.09,2.072-2.251,4.109-2.251,4.109
								C169.569,197.911,171.143,194.902,169.729,197.084z"/>
							<path fill="#383F56" d="M150.628,219.505c0,0.001-0.852,0.32-1.724,0.572c-0.871,0.26-1.756,0.451-1.756,0.452
								c2.028-0.392,3.755-0.901,5.575-1.626c1.819-0.726,3.738-1.69,5.994-3.237c2.31-1.949,3.448-3.32,4.149-4.152
								c0.682-0.847,0.891-1.195,0.973-1.39c0,0-0.695,0.813-1.837,1.966c-1.143,1.149-2.757,2.627-4.563,3.91
								c-1.797,1.292-3.781,2.359-5.335,3.002c-1.555,0.646-2.637,0.948-2.637,0.948s0.292-0.108,0.583-0.218
								C150.339,219.619,150.628,219.505,150.628,219.505z"/>
							<path fill="#383F56" d="M131.202,219.575c0.708,0.131,1.758,0.373,2.87,0.542c1.111,0.172,2.276,0.275,3.188,0.3
								c1.828,0.014,2.618-0.092,0.103-0.546c-2.531-0.285-4.211-0.754-5.41-1.107c-1.197-0.369-1.931-0.624-2.537-0.847
								c-0.61-0.218-1.1-0.393-1.778-0.7c-0.677-0.308-1.553-0.74-2.843-1.596c1.718,1.191,3.054,1.897,3.994,2.349
								c0.943,0.45,1.487,0.663,1.726,0.775c0.485,0.21-0.236-0.014-1.083-0.334c-0.851-0.311-1.804-0.76-1.887-0.731
								c-0.039,0.01,0.129,0.16,0.667,0.46c0.531,0.309,1.431,0.779,2.881,1.343c-3.221-1.077-5.852-2.708-8.065-4.448
								c2.345,1.944,4.938,3.536,7.586,4.603c-0.145-0.066-0.246-0.112-0.364-0.166l-0.076-0.03c0.001-0.003,0.018,0.003,0.019,0
								c-0.674-0.335-0.887-0.459-0.121-0.108c0.055,0.021,0.252,0.094,0.34,0.127c0.131-0.016,0.451,0.048,0.79,0.119
								c2.359,0.826,2.571,0.81,1.952,0.703c-0.611-0.133-2.001-0.551-2.742-0.822c-0.063,0-0.195-0.032-0.22-0.019
								c0.016,0.009,0.037,0.02,0.058,0.03c0,0,1.016,0.406,2.592,0.827c1.574,0.427,3.717,0.791,5.844,0.894
								c2.124,0.109,4.229,0.001,5.824-0.207c1.589-0.202,2.638-0.455,2.638-0.455c-1.787,0.342-3.819,0.572-6.366,0.575
								C138.25,221.079,135.061,220.891,131.202,219.575z"/>
							<path fill="#383F56" d="M89.456,152.635c0.171,0.459,0.134,0.452,0.122,0.499C90.054,154.034,90.25,154.37,89.456,152.635z"
								/>
							<path fill="#383F56" d="M91.95,158.618c-0.537-1.013-1.096-1.805-2.624-5.198c-1.243-2.982,0.194-0.072,0.251-0.286
								c-1.048-1.985-3.586-6.99-0.814-0.521l0.522,0.984c2.533,5.813,5.496,13.425,4.976,12.445
								C93.826,164.201,93.385,162.604,91.95,158.618z"/>
							<path fill="#383F56" d="M107.329,192.044c0,0,1.614,2.877,3.358,5.688c1.73,2.818,3.653,5.526,3.653,5.526
								s-0.882-1.445-1.702-2.918c-0.825-1.471-1.603-2.96-1.603-2.96l-0.018,0.408c-1.881-3.248-2.601-4.524-2.993-5.05
								C107.644,192.208,107.628,192.412,107.329,192.044z"/>
							<path fill="#383F56" d="M165.586,208.381c0,0-0.199,0.426-0.398,0.851c-0.208,0.425-0.417,0.85-0.417,0.85
								s1.188-1.629,2.23-3.307c1.058-1.673,2.004-3.379,2.004-3.379c0,0-0.792,1.272-1.649,2.518
								C166.504,207.162,165.586,208.381,165.586,208.381z"/>
							<path fill="#383F56" d="M175.024,193.691l0.035,0.752c0,0,0.498-1.029,0.996-2.059c0.485-1.031,0.97-2.063,0.97-2.063
								L175.024,193.691z"/>
							<path fill="#383F56" d="M634.871,85.117l-1.727-3.448C633.944,83.308,634.473,84.355,634.871,85.117z"/>
							<path fill="#383F56" d="M646.8,110.375l0.474,0.532C646.612,109.788,646.31,109.344,646.8,110.375z"/>
							<path fill="#383F56" d="M384.277,158.26c2.027,5.247,4.178,11.179,4.294,10.374l-0.341-1.747
								C386.494,163.363,385.271,160.616,384.277,158.26z"/>
							<path fill="#383F56" d="M536.386,48.136c-0.272,0.463-0.557,0.944-0.838,1.42c-0.457,1.292-0.887,2.508-1.271,3.595
								C534.911,51.644,535.631,49.931,536.386,48.136z"/>
							<path fill="#383F56" d="M536.533,43.783c0,0,0.9-1.628,1.801-3.255c0.919-1.619,1.837-3.238,1.837-3.238
								C539.306,38.726,538.118,40.808,536.533,43.783z"/>
							<path fill="#383F56" d="M547.534,51.685l-1.559,4.213C549.027,49.605,547.491,52.281,547.534,51.685z"/>
							<path fill="#383F56" d="M250.441,36.288c2.442-4.128,4.441-7.345,6.262-10.104C253.395,30.831,250.862,34.785,250.441,36.288
								z"/>
							<path fill="#383F56" d="M643.691,93.11c-1.074-2.098-1.58-2.973-1.639-2.869C643.149,92.405,643.81,93.61,643.691,93.11z"/>
							<path fill="#383F56" d="M264.959,15.567c-0.598,0.545-1.153,1.117-1.73,1.715c-2.181,2.588-4.199,5.38-6.526,8.901
								C259.152,22.753,262.042,18.983,264.959,15.567z"/>
							<path fill="#383F56" d="M249.258,58.06c-0.188,0.355-0.413,0.781-0.583,1.104C248.676,59.298,248.917,58.798,249.258,58.06z"
								/>
							<path fill="#383F56" d="M175.614,201.037c0.789-1.35,2.071-3.561,3.23-5.681C178.263,196.377,177.29,198.089,175.614,201.037
								z"/>
							<path fill="#383F56" d="M204.934,131.83C203.412,135.103,204.731,132.367,204.934,131.83L204.934,131.83z"/>
							<path fill="#383F56" d="M195.909,146.993c0.28-0.718,0.471-1.271,0.418-1.396
								C196.296,145.91,196.144,146.395,195.909,146.993z"/>
							<path fill="#383F56" d="M295.97,3.576c0.104,0.022,0.187,0.04,0.306,0.065C295.237,3.338,295.416,3.392,295.97,3.576z"/>
							<path fill="#383F56" d="M202.431,136.654c0.614-1.209,1.321-2.602,2.091-4.117
								C204.172,133.197,203.532,134.446,202.431,136.654z"/>
							<path fill="#383F56" d="M202.929,136.081c-0.545,1.118-0.975,1.998-1.383,2.836
								C201.418,139.36,201.628,139.015,202.929,136.081z"/>
							<path fill="#383F56" d="M207.077,127.282c-0.885,1.864-1.732,3.595-2.555,5.254c0.331-0.628,0.48-0.885,0.412-0.707
								C205.385,130.873,206.021,129.522,207.077,127.282z"/>
							<path fill="#383F56" d="M401.119,207.293c-0.123-0.208-0.265-0.449-0.398-0.676
								C398.584,203.605,399.458,204.967,401.119,207.293z"/>
							<path fill="#383F56" d="M445.626,214.819c-0.138,0.071-0.212,0.109-0.337,0.174c0.144-0.06,0.323-0.134,0.454-0.188
								L445.626,214.819z"/>
							<path fill="#383F56" d="M454.906,207.229c-1.55,2.138-2.994,3.617-4.453,4.789c-1.466,1.164-2.94,2.04-4.71,2.788
								c0,0,1.026-0.118,2.066-0.352c1.036-0.228,2.077-0.563,2.077-0.563s0.379-0.373,0.909-0.959
								c0.528-0.59,1.201-1.395,1.823-2.231C453.867,209.023,454.905,207.229,454.906,207.229z"/>
							<path fill="#383F56" d="M604.441,26.362c0,0,1.25,1.803,2.392,3.701c1.152,1.889,2.218,3.847,2.218,3.848
								c-3.048-4.448-5.871-7.962-7.352-9.501c-0.734-0.78-1.109-1.101-0.979-0.865c0.128,0.24,0.758,1.042,1.898,2.687
								c0.447,0.025,1.997,1.654,3.895,4.338c1.906,2.673,4.129,6.396,6.22,10.226c4.183,7.663,7.961,15.65,8.86,15.916l2.315,5.537
								c-0.722-1.56-0.912-1.774-1.628-3.312c4.394,10.817,4.584,7.417,10.762,21.149c2.115,4.803,3.485,8.209,1.828,5.032
								l5.264,10.458c1.431,3.092,0.86,2.44-0.563-0.639c0,0,1.937,4.023,3.873,8.047c1.961,4.012,3.922,8.024,3.922,8.024
								l-0.094-0.102c0.32,0.553,0.742,1.28,1.217,2.099c0.239,0.42,0.491,0.864,0.751,1.321c0.36,0.664,0.73,1.347,1.102,2.032
								c0.188,0.329,0.353,0.691,0.556,0.984c0.392-0.015,0.782-0.03,1.17-0.045c0.756-0.029,1.497-0.058,2.206-0.085
								c0.588-0.026,1.148-0.052,1.669-0.075c0.599-0.022,1.15-0.043,1.639-0.061c3.228,0.098,2.51,0.133,1.095,0.166
								c-1.397,0.033-3.454,0.063-2.594,0.147c2.611-0.063,5.222-0.126,7.931-0.128l-2.998-5.673
								c-0.68-1.676-0.552-1.687,0.096-0.575c0.685,1.178,1.967,3.617,3.502,6.623c-1.537,0.02-3.211,0.041-4.926,0.063
								c-1.667,0.001-3.374,0.003-5.027,0.005c0.203,0.026,0.309,0.052,0.58,0.076c0.277,0.024,0.548,0.047,0.813,0.07
								c0.547,0.042,1.071,0.081,1.574,0.12c1.025,0.071,1.998,0.126,2.921,0.168c1.847,0.083,3.492,0.117,5.04,0.109
								c-0.757-1.541-1.562-3.092-2.463-4.819c-0.787-1.522-1.674-3.236-2.769-5.353c-1.442-2.803-3.332-6.728-5.954-13.026
								l4.1,8.354c-1.867-5.748-5.168-12.212-9.118-21.999c0.803,2.389,7.717,19.657,2.925,10.082
								c-1.171-2.784-2.784-6.419-5.442-11.564c0.416-0.245-2.038-5.343-5.051-11.739l0.783,0.168
								c-3.392-6.851-3.434-6.167-5.606-10.118c-3.579-7.74-3.935-9.542-4.437-11.539c-6.001-12.338,3.512,8.827-3.834-5.646
								c-2.479-5.14-4.799-9.437-7.535-13.843c-1.378-2.198-2.856-4.426-4.59-6.753c-1.729-2.327-3.708-4.764-6.173-7.272
								c-5.691-6.006,1.334,0.729-0.64-1.496c0,0-1.388-1.231-2.881-2.342c-1.484-1.122-3.08-2.087-3.08-2.088
								c-1.488-1.047-0.933-0.829-0.631-0.738c-1.345-0.83-2.099-1.173-2.569-1.353c-0.469-0.183-0.663-0.194-0.957-0.255
								c-0.293-0.063-0.681-0.183-1.562-0.516c-0.886-0.315-2.258-0.881-4.606-1.524c-1.342-0.035-6.099-1.586-12.289-1.52
								c-3.062,0.015-6.478,0.412-9.736,1.436c-3.264,1.002-6.299,2.66-8.657,4.551c-1.267,0.785-1.026,0.512-0.592,0.051
								c0.448-0.441,1.118-1.041,0.668-0.882c-3.411,2.493-5.433,4.678-6.979,6.378c-1.522,1.727-2.532,3.041-3.455,4.298
								c-1.81,2.531-3.364,4.814-6.476,10.594c0,0-1.531,2.335-2.974,4.722c-1.453,2.381-2.837,4.797-2.838,4.797
								c4.301-6.972-0.256,2.453-3.785,10.846c1.482-2.483,2.749-4.605,3.597-6.027c0,0-1.567,3.271-3.079,6.569
								c-1.495,3.306-2.991,6.611-2.991,6.611c-0.847,1.538-0.42,0.123,0.365-2.139c-0.375,0.919-0.729,1.789-1.007,2.467
								c-2.435,4.593-1.621,2.002-0.346-1.515c0.888-1.538,1.768-3.063,2.623-4.547c1.215-3.399,2.343-6.597,1.673-6.095
								c-0.36,0.879-1.112,2.541-1.961,4.355c0.319-0.891,0.499-1.472,0.25-1.108c-0.278,0.414-0.823,1.841-1.708,4.055
								l-2.073,2.676l-0.089,0.846l-8.467,17.035c-5.094,12.621-9.057,23.813-18.285,43.323c1.885-5.037-0.261-1.409-0.689-1.943
								c3.187-4.993,7.054-15.134,11.919-25.192c-2.546,5.246-2.27,3.958-1.729,2.575c0,0-2.002,4.563-4.004,9.126
								c-2.029,4.551-4.06,9.102-4.06,9.102c-0.255-0.622-2.196,3.626-4.675,8.229c2.608-3.115-5.896,13.683-9.036,21.179
								c-0.514,0.315-0.018-1.602,4.316-10.516c-5.381,9.554-4.978,13.271-10.088,22.72c1.012-2.195,1.61-3.356,1.858-4.293
								c-2.115,5.245-8.146,17.665-7.045,14.594l1.012-2.188c-3.448,7.243-8.562,18.329-13.24,27.678
								c-2.339,4.675-4.596,8.899-6.389,12.051c-1.786,3.156-3.097,5.248-3.27,5.855c-0.169,0.063,0.363-2.284,0.735-3.167
								c0,0-0.796,1.573-2.155,3.832c-1.358,2.257-3.316,5.192-5.757,7.763c-2.412,2.592-5.416,4.672-7.929,5.803
								c-1.249,0.571-2.343,0.957-3.119,1.188c-0.775,0.233-1.228,0.347-1.228,0.347c1.216-0.571-0.698-0.873-1.177-1.415
								c-0.25-0.269-0.156-0.54,0.747-0.909c0.893-0.394,2.629-0.8,5.402-2.067c-1.631,0.638-3.513,1.178-5.949,1.498
								c-2.422,0.29-5.496,0.449-9.151-0.165c2.272,0.638,6.025,1.673,2.574,1.533c-2.34-0.444-3.823-0.989-4.953-1.439
								c-1.128-0.462-1.906-0.844-2.729-1.281c-0.817-0.449-1.684-0.95-2.872-1.825c-1.177-0.889-2.695-2.138-4.585-4.304
								c1.26,1.356,0.989,1.521-0.176,0.82c-1.156-0.706-3.133-2.427-4.957-4.884c0.712,0.648,0.59-1.068,2.033,0.578
								c0,0-0.642-0.673-1.561-1.738c-0.921-1.064-2.115-2.527-3.259-4.046c-2.296-3.029-4.404-6.24-4.404-6.24
								c2.081,3.205,1.129,0.123-0.218-3.013c0.285,0.744-1.306-2.133-3.111-5.713c-1.783-3.598-3.881-7.829-4.787-9.657
								l2.618,5.945c-3.752-7.786-5.898-11.509-8.092-15.19c-2.182-3.688-4.357-7.365-7.959-15.184
								c1.089,1.791,3.469,4.065-0.099-3.936c-2.223-3.395-9.997-14.949-17.05-28.436l-0.983-2.767l-5.457-10.35
								c1.961,3.102,5.633,9.013,9.449,15.396c3.816,6.386,7.768,13.257,10.459,18.159c-2.534-5.99-0.408-1.807-4.61-10.592
								c-1.2-3.239,2.706,4.591,3.938,7.179c0,0-2.387-5.144-4.773-10.286c-2.422-5.129-4.844-10.257-4.844-10.257
								c-0.184,1.191-8.188-15.25-8.293-14.248l11.364,21.822c-0.087,0.596-2.054-2.41-4.89-7.357
								c-2.847-4.939-6.516-11.836-9.902-19.108c-1.509-3.799,2.391,2.242,2.451,1.842c-1.117-1.771-6.907-13.562-7.373-14.971
								l3.214,6.004c-3.569-8.18-6.974-12.818-10.921-22.823c-1.52-3.378-3.911-10.398-4.553-10.808
								c1.895,5.804,0.234,7.876-1.994,4.479c-0.256-0.596-2.171-5.063-4.23-9.869c-2.105-4.784-4.357-9.903-5.211-11.844
								c-1.167-2.832,0.232-0.989,1.655,0.988c1.421,1.976,2.858,4.083,1.908,1.639c-0.263-0.118-2.018-3.022-2.751-4.23
								c-1.74-3.51,1.331,1.134-2.913-6.266c-0.639-0.453-2.836-4.191-4.207-6.291c-0.68-1.052-1.117-1.712-0.941-1.397
								c0.169,0.317,0.982,1.596,2.59,4.515c-2.272-3.498-3.52-5.336-4.895-7.316c-0.697-0.984-1.425-2.005-2.411-3.232
								c-0.988-1.224-2.211-2.674-4.004-4.41c0.953,1.299-0.811-0.14-3.856-2.146c-1.527-0.997-3.407-2.088-5.425-3.007
								c-2.019-0.919-4.168-1.661-6.149-2.161c0.517-0.04-1.202-0.761-2.075-1.026c-4.159-0.871-7.957-0.966-11.437-0.679
								c-3.483,0.302-6.677,1.038-9.664,2.226c-5.976,2.403-11.059,6.526-16,12.734c-0.527,0.517-1.987,2.283-3.041,3.616
								c-1.056,1.331-1.772,2.185-0.972,0.743c-1.186,1.975-2.167,3.848-4.621,8.085c-2.597,3.973-1.286,1.583,0.198-1.047
								c1.496-2.62,3.24-5.444,1.011-2.547c0.002,0.368-1.544,3.153-3.354,6.681c-1.818,3.525-3.9,7.793-5.34,10.961
								c0.753-0.821,2.564-4.402,4.686-8.509c2.11-4.112,4.597-8.726,6.426-11.72c0.372,0.226-0.971,2.972-3.162,7.565
								c-2.206,4.588-5.219,11.057-8.635,18.562c-5.479,11.909-2.942,4.896-3.82,6.998c-10.604,22.256-7.495,19.678-16.798,37.954
								c-3.977,7.114-1.123-0.128-2.247,1.334c4.403-9.75,7.302-14.714,10.343-21.298l-4,7.984c1.281-3.158,4.166-9.69,5.946-13.153
								c-1.66,2.984-6.044,12.433-11.167,23.222c-5.09,10.805-11.105,22.855-15.415,31.344c-1.304,3.126-3.636,8.479-2.256,6.077
								l2.526-5.466c2.775-4.804-4.341,10.481-0.877,3.692c-3.202,7.419-6.602,15.813-11.611,26.021l-1.456,1.679
								c0.266-0.146,3.462-6.586,4.643-9.56c-1.758,4.407-8.093,15.46-9.582,20.502l3.762-7.046
								c-3.155,7.478-6.774,16.866-11.55,25.822c2.617-3.848,1.015-2.104,4.809-8.258c-1.757,2.611,1.09-3.202,3.634-8.617
								c2.551-5.413,4.864-10.407,2.34-6.081c3.854-6.314,5.673-11.393,10.371-19.788c-0.307,0.185-1.795,2.913,1.885-4.694
								c0.108-0.37,0.424-1.217,0.628-1.752c0.117-0.231,0.157-0.312,0.257-0.511c-0.08,0.15-0.14,0.262-0.22,0.411
								c0.128-0.343,0.136-0.375-0.082,0.155c-0.938,1.782-1.727,3.214-2.11,3.765c1.348-4.001,7.128-16.134,8.908-20.319
								c2.274-4.47-0.707,1.987,0.682-0.381l2.651-6.258c0.706-0.402,6.521-11.679,1.572-0.914l4.669-9.585
								c2.949-5.546,6.723-13.311,8.803-18.212c2.218-4.511,4.905-11.709,3.38-7.594l6.791-15.243l0.167-0.091
								c3.521-7.429,6.964-15.151,10.917-22.907c1.983-3.87,4.097-7.75,6.486-11.52c2.389-3.761,5.052-7.437,8.185-10.677
								c1.713-2.016,3.566-3.964,5.993-5.851c2.431-1.86,5.449-3.704,9.586-4.855c0,0,0.427-0.019,0.854-0.037
								c0.426-0.005,0.852-0.009,0.852-0.009c3.149-0.842,8.201-1.173,12.624-0.446c4.43,0.627,7.995,2.274,9.315,2.74
								c1.445,1.018,3.802,2.566,6.373,4.943c2.589,2.344,5.37,5.526,7.983,9.117c5.232,7.19,9.855,15.826,12.58,21.388l0.665,0.188
								c3.794,7.71,7.432,15.102,12.141,24.672l0.129-0.785c4.227,8.201,9.675,21.653,16.045,34.802
								c-0.586-0.82-2.145-4.182-3.176-6.595c3.268,8.099,7.508,16.313,11.627,24.272c4.109,7.982,8.088,15.812,11.098,23.123
								c1.814,3.496,2.966,6.104,4.028,8.655c-0.155-0.331-0.302-0.626-0.433-0.874c0.168,0.365,0.419,0.909,0.677,1.468
								c0.664,1.608,1.349,3.267,2.089,5.062c-0.597-1.541-1.181-3.012-1.722-4.274c1.289,2.75,3.278,6.905,5.294,10.953
								l0.381,1.948c0.16,0.33,0.289,0.598,0.456,0.941c1.729,4.093,1.727,3.131,1.045,0.835c1.041,2.026,2.02,3.872,2.823,5.283
								c0.844,3.6,5.393,10.577,6.977,15.332c0.896,1.261,3.608,6.304,6.749,11.053c1.565,2.374,3.246,4.667,4.735,6.404
								c1.485,1.741,2.759,2.928,3.333,3.235c0.028,0.187,0.901,1.241-0.779-0.614c1.665,1.972,3.506,3.837,5.549,5.39
								c2.036,1.556,4.28,2.777,6.539,3.521c0,0,0.467,0.347,0.958,0.67c0.487,0.329,0.999,0.632,0.999,0.632
								s0.724,0.169,1.816,0.32c1.091,0.158,2.55,0.275,3.992,0.27c1.444,0,2.866-0.113,3.931-0.248
								c1.063-0.131,1.763-0.271,1.763-0.271c3.47-0.188,5.886-0.977,6.628-1.083c0.374-0.059,0.343,0.047-0.197,0.346
								c-0.539,0.296-1.593,0.798-3.32,1.301c4.203-1.14,6.826-2.801,8.717-4.108c1.882-1.354,3.085-2.452,4.188-3.522
								c1.093-1.08,2.082-2.146,3.284-3.663c1.196-1.52,2.616-3.485,4.388-6.446l-0.049,0.778
								c2.835-4.085,6.162-11.196,7.803-13.657c1.45-2.327,3.707-6.512,6.375-11.9c2.673-5.387,5.768-11.972,9.064-19.043
								c6.58-14.148,14.096-30.194,20.557-42.57c-3.428,4.367,6.183-11.446,5.826-12.857c0.953-1.349,2.777-4.801,1.036-0.609
								c5.92-13,9.563-19.215,13.031-28.465c0.939-1.364-0.92,2.939-0.159,1.691c0.429-1.063,1.692-4.211,2.467-5.487
								c0.762-1.248-0.67,1.99-1.513,4.089c6.095-13.231,5.971-14.902,5.697-16.206c3.498-6.506,5.049-9.828,6.97-14.815
								c1.401-2.166,3.566-5.849-0.42,2.236c1.152-2.259,4.69-9.16,8.331-15.288c1.813-3.068,3.659-5.932,5.091-8.034
								c1.424-2.108,2.422-3.466,2.372-3.67c0.554-0.558,1.669-1.894,2.818-3.147c1.141-1.263,2.327-2.43,2.786-2.892
								c2.068-1.841,3.823-3.053,5.368-3.974c1.548-0.919,2.888-1.562,4.256-2.108c1.369-0.543,2.768-1.001,4.494-1.412
								c1.728-0.401,3.789-0.75,6.503-0.891c0,0-0.754,0-1.506,0.044c-0.753,0.026-1.502,0.099-1.502,0.099
								c2.083-0.629,4.402-0.817,7.234-0.577c2.831,0.261,6.215,0.849,10.289,2.465l-0.264-0.021
								c2.296,1.01,4.011,2.076,5.364,3.004c1.354,0.933,2.343,1.746,3.13,2.413c1.572,1.34,2.348,2.097,3.126,2.838
								c0.771,0.749,1.526,1.509,2.838,3.094c1.294,1.598,3.157,4.023,5.76,8.359l-0.198-1.185c0.956,0.5,3.293,4.383,5.862,9.54
								c2.587,5.15,5.443,11.547,8.195,16.802l-1.63-3.968c3.2,5.653,6.54,16.939,9.162,22.898c0.517,1.326-1.076-1.972-1.974-3.739
								c6.634,15.717,1.516,1.73,6.972,13.201c0.668,2.27-2.041-2.387,1.465,5.414c0.736,1.918,3.382,7.113,6.446,13.186
								c1.521,3.042,3.15,6.3,4.73,9.459c0.653,1.35,1.296,2.678,1.913,3.952c0.308,0.667,0.576,1.293,0.751,1.786
								c-0.22-0.011-0.445-0.039-0.648-0.061c0.281,0.052,0.561,0.104,0.783,0.146c-0.014-0.396-0.028-0.782,0.728,0.455
								c-0.083,0.05-0.487,0.08-1.074,0.118c-0.651,0.012-1.389,0.005-2.149-0.014c-0.473-0.012-0.958-0.024-1.454-0.037
								c-0.192-0.008-0.386-0.016-0.582-0.024l-0.146-0.006c-0.05,0.001-0.102,0.004-0.11-0.061l-0.122-0.281
								c-0.183-0.417-0.367-0.841-0.554-1.27c-0.301-0.666-0.604-1.339-0.91-2.017c-0.609-1.357-1.228-2.731-1.843-4.1
								c-2.465-5.47-4.924-10.819-7.03-14.34c-0.425-1.07-0.547-1.493-0.508-1.563c-3.127-6.164-9.794-20.229-11.97-23.814
								c-0.614-3.241-5.304-12.933-10.017-21.733c-2.355-4.4-4.75-8.556-6.552-11.608c-1.794-3.056-2.978-5.027-2.632-5.211
								c0,0-0.744-1.134-1.945-2.79c-1.198-1.656-2.893-3.818-4.81-5.826c-1.905-2.016-4.079-3.826-5.854-5.001
								c-1.776-1.178-3.079-1.782-3.079-1.782l0.604,0.134c-3.245-1.741-6.321-2.488-8.904-2.8
								c-2.579-0.317-4.796-0.219-6.629,0.023c-3.701,0.51-6.138,1.518-8.352,2.719c-3.019,1.382-0.919,0.182-0.706-0.03
								c-2.402,1.137-4.34,2.49-5.957,3.819c-1.624,1.328-2.926,2.65-4.064,3.889c-2.259,2.497-3.835,4.698-5.263,6.849
								c-2.813,4.329-5.038,8.506-8.559,16.1l-1.236,1.323c-0.911,2.083-4.301,8.449-8.294,16.59
								c-4.006,8.136-8.687,18.007-12.556,26.946c0.029-0.196,0.113-0.602,0.705-2.032c-4.369,10.056-10.311,21.738-15.51,31.863
								c-5.181,10.163-9.332,18.895-10.228,22.916l-5.725,13.304c8.036-16.914-0.47,2.857,3.056-3.998
								c-3.012,6.719-8.518,17.029-4.789,8.786l0.679-1.245c0.271-1.706-2.25,3.536-4.9,9.103
								c-2.645,5.569-5.466,11.437-5.647,11.069c-3.985,8.273-8.062,16.447-12.77,24.093c-2.359,3.813-4.893,7.486-7.746,10.812
								c-2.849,3.32-6.052,6.274-9.674,8.454c-3.611,2.195-7.645,3.527-11.813,4.048c-4.164,0.509-8.492,0.39-12.527-0.436
								c-4.053-0.827-7.844-2.488-11.186-4.854c-3.353-2.356-6.267-5.355-8.889-8.597c0,0,0.459,0.865,0.954,1.711
								c0.488,0.852,1.013,1.686,1.013,1.686s-1.99-2.153-3.752-4.527c-1.787-2.351-3.397-4.849-3.397-4.849
								c-0.783-1.351-1.212-2.315-0.899-2.037c0.326,0.268,1.339,1.823,3.771,5.238c-1.139-1.895-3.157-4.777-4.854-7.288
								c-1.699-2.506-3.117-4.593-3.247-4.659c-1.962-3.683-2.638-5.23-2.677-5.492c-0.034-0.267,0.599,0.732,1.403,2.044
								c1.599,2.634,3.975,6.447,2.717,4.236c0,0-0.854-1.505-1.707-3.009c-0.832-1.521-1.664-3.043-1.664-3.043l0.659,1.423
								c-2.882-4.845-3.432-5.131-7.903-14.399c-2.683-5.94-1.035-3.209-2.111-5.538c0.026-0.004-0.048-0.204-0.299-0.75
								c-0.262-0.54-0.69-1.431-1.361-2.82l-6.346-13.763l2.031,5.741c-3.09-5.973-5.984-12.943-3.627-6.321
								c-1.709-4.868-7.577-17.745-13.517-30.048c-2.991-6.133-5.927-12.154-8.288-16.996c-2.34-4.847-4.068-8.535-4.674-9.991
								c-4.413-8.317-8.316-16.745-13.124-27.208c1.097,2.647,1.236,4.471-2.888-4.562c2.75,2.72-7.115-16.735-10.092-24.307
								c1.353,3.364-1.831-2.977-5.258-8.651c-3.401-5.701-7.242-10.545-4.284-5.625c-2.344-3.482-2.406-3.614-2.188-3.618
								c0.179,0.018,0.617,0.188-1.319-2.43c-1.69-1.914-3.549-3.802-5.684-5.507c-2.13-1.702-4.555-3.209-7.237-4.289
								c-5.386-2.132-11.535-2.562-17.51-1.072c-2.988,0.759-5.883,2.111-8.455,3.896c-2.586,1.776-4.855,3.952-6.902,6.279
								c-4.078,4.686-7.331,9.964-10.31,15.353c-0.031,0.42,2.21-3.039-0.128,1.69c0,0-1.75,2.735-3.421,5.516
								c-1.678,2.776-3.3,5.581-3.3,5.581c-2.043,4.383-1.056,4.431-5.376,12.13c0.664-1.061,1.658-2.645,0.33,0.302
								c-5.279,10.722-10.363,21.661-15.543,32.632c-2.604,5.478-5.216,10.972-7.834,16.479c-2.649,5.5-5.304,11.011-7.961,16.527
								c-5.222,11.08-10.453,22.181-15.671,33.255c-5.258,11.037-10.543,22.054-16.545,32.474c3.325-5.612,1.378-1.725-0.997,2.644
								c1.625-2.795,0.347,0.273,0.861-0.17c0,0-2.543,4.37-5.372,8.508c-1.407,2.073-2.896,4.073-4.054,5.528
								c-1.16,1.455-1.973,2.379-1.974,2.379c-0.861,1.596-4.299,5.717-8.418,8.594c-2.042,1.452-4.203,2.614-5.994,3.379
								c-1.783,0.786-3.174,1.234-3.625,1.518c0,0,1.489-0.42,2.917-0.998c1.435-0.563,2.791-1.29,2.791-1.29
								c-1.753,1.064-2.005,1.316-1.285,1.257c0.705-0.088,2.343-0.594,4.117-1.425c3.593-1.592,7.45-4.725,7.309-3.944
								c3.274-3.674,7.454-8.52,11.445-14.481c3.999-5.94,7.859-12.867,10.79-20.197c1.71-3.033-1.035,2.798-0.014,1.228
								c1.403-3.765,3.427-8.133,7.376-16.132l-0.335,0.956c10.515-22.735,15.244-32.33,27.869-57.452l-1.338,1.669
								c2.703-5.413,3.381-6.5,4.715-9.003c1.172-3.286-0.664,0.544-2.562,4.43c-1.897,3.887-3.86,7.826-2.828,4.811
								c2.197-3.39,6.837-12.995,11.24-22.346c4.409-9.349,8.638-18.413,10.282-20.633c3.933-8.417-1.651,2.233,2.285-6.175
								l1.314-2.102l0.654-2.284c2.659-5.476,4.348-8.059,4.67-8.154c-0.674,1.309-1.762,3.799-2.423,5.234
								c1.854-3.481,4.246-8.484,6.43-12.849c2.172-4.373,4.174-8.081,4.899-9.202c0,0-1.144,1.875-2.239,3.792
								c-1.082,1.928-2.163,3.856-2.163,3.856c2.861-5.59,6.043-11.423,9.967-16.79c3.896-5.329,8.771-10.197,14.879-12.094
								c6.074-1.898,13.031-1.345,18.411,1.595c5.472,2.955,9.595,7.965,13.079,12.801l-0.854-1.625
								c2.725,3.691,4.38,6.498,5.673,8.725c1.28,2.241,2.157,3.949,3.044,5.714c1.743,3.56,3.584,7.322,8.086,16.517l-0.369-0.65
								c1.971,3.608,4.4,8.529,6.749,13.638c-2.424-4.594,3.655,9.065,0.523,3.018c8.967,18.216,4.543,8.963,10.991,20.75
								l0.986,2.954c2.269,3.984,2.572,4.262,7.126,13.464c-3.956-7.443,2.349,6.149-2.142-2.164
								c8.747,19.708,14.648,28.415,17.763,37.875c5.136,8.51-7.402-17.098-4.861-12.176c-1.685-4.333,4.197,7.038,6.95,13.212
								c2.905,6.239,3.704,11.165,11.103,26.838c-0.734-1.562-0.854-1.634-1.583-3.191c2.536,5.98,5.745,11.34,9.009,18.644
								c2.575,3.702,4.887,9.185,6.245,9.901c0.001,0-2.052-3.437-3.951-6.945c-1.916-3.502-3.727-7.049-3.727-7.049
								c2.115,3.991,4.374,7.757,7.063,12.11c1.354,2.172,2.809,4.494,4.481,7.027c1.671,2.534,3.55,5.288,5.862,8.248
								c-0.435-0.399-1.405-1.43-2.464-2.697c-1.061-1.266-2.208-2.766-3.105-4.013c2.256,3.787,5.013,6.835,8.042,10.311
								c-0.754-0.172-4.263-3.785-7.633-8.735c-3.427-4.914-6.827-11.017-9.358-15.172c0.941,2.155,3.276,6.135,5.114,9.023
								c1.824,2.894,3.083,4.74,1.382,2.895c2.368,2.702,4.738,6.335,7.988,10.178c1.627,1.913,3.484,3.872,5.696,5.667
								c2.203,1.794,4.779,3.417,7.678,4.541l-0.947,0.066c0.903,0.414,2.323,0.987,3.978,1.489c1.652,0.509,3.53,0.945,5.304,1.268
								c0,0-1.636-0.124-3.271-0.427c-1.639-0.278-3.255-0.753-3.255-0.752c4.891,1.606,9.766,2.324,14.534,2.401
								c4.759,0.09,9.715-0.566,14.242-2.65c-2.39,1.015-4.352,1.525-5.865,1.857c-1.52,0.32-2.606,0.462-3.364,0.527
								c-1.518,0.133-1.726,0.04-1.573-0.061c0.153-0.109,0.665-0.266,0.606-0.363c-0.059-0.11-0.687-0.102-2.79-0.087
								c6.132-0.428,9.975-1.79,12.698-2.833c2.726-1.101,4.414-1.962,6.157-2.923c1.723-0.986,3.511-2.11,5.977-4.33
								c2.438-2.231,5.527-5.608,9.215-11.275c-0.971,1.549-3.02,4.333-4.547,6.047c-1.529,1.714-2.35,2.453-0.588,0.162
								c3.378-3.953,7.098-9.604,8.875-12.184c8.544-15.478-1.7,2.145,1.7-4.565c3.376-4.991,3.865-7.728,7.085-14.683l0.456,0.163
								c4.484-8.903,4.767-10.221,5.018-11.288c0.231-1.074,0.38-1.915,4.321-9.945l-2.589,7.137l3.783-8.528l-0.313,1.976
								c3.909-9.371,5.325-12.193,9.689-21.112c-1.286,1.946-0.253-1.554,3.519-9.495c2.854-5.279-1.051,3.217,4.3-8.031
								c-0.954,2.662-1.954,5.596-4.688,10.298c-0.098,0.569-0.918,2.635-1.021,3.218c3.053-5.693,7.069-14.591,9.058-18.637
								c-0.78,1.55-1.712,3.403-2.239,4.329l7.305-16.563c1.396-2.492,0.551-0.39-0.291,1.691c1.541-3.329,2.437-5.712,4.706-10.603
								c-0.246,1.428,0.275,1.304-2.85,8.273l6.984-15.78c0.645-0.969,4.166-7.82,3.352-5.73
								c4.261-8.557,9.118-21.609,14.942-32.786c0.223-0.619,0.733-1.832,1.891-4.242c2.717-5.241,5.457-10.079,8.571-14.896
								c1.559-2.405,3.221-4.797,5.091-7.142c1.876-2.333,3.962-4.627,6.479-6.623c0,0,1.576-0.944,3.232-1.569
								c1.646-0.663,3.35-0.994,3.35-0.994c2.274-0.711,2.913-0.777,2.704-0.869c-0.197-0.06-1.199,0.002-1.993,0.106
								c-0.794,0.097-1.403,0.167-0.827-0.122c0.577-0.242,2.342-1.075,6.608-1.28c2.994-0.069,4.784,0.346,5.773,0.604
								c1.002,0.283,1.27,0.47,1.31,0.586c0.068,0.249-0.735,0.219,1.13,0.956c2.72,0.771,6.354,2.602,9.825,6.007
								c3.487,3.359,6.765,8.058,9.5,13.259C608.185,31.783,606.626,29.177,604.441,26.362z M652.41,91.723
								c1.194,2.354,3.692,6.986,4.255,8.849C654.892,98.09,654.149,95.871,652.41,91.723z M526.952,65.869
								c0.684-1.846,2.039-4.567,3.664-7.589C529.592,60.547,528.383,63.09,526.952,65.869z M221.789,95.979
								c0.039-0.104,0.067-0.179,0.099-0.264C224.58,90.465,223.62,92.324,221.789,95.979z M216.312,106.932
								c-0.476,1.138-0.379,1.091-0.091,0.652c0.263-0.822,1.453-3.301,2.835-6.111
								C218.565,102.203,217.806,103.592,216.312,106.932z M385.881,171.669l0.902,2.201
								C384.363,169.079,385.122,170.382,385.881,171.669z"/>
							<path fill="#383F56" d="M536.479,44.357c0.407-0.635,0.582-0.78,0.741-0.896C537.615,42.492,537.54,42.43,536.479,44.357z"/>
							<path fill="#383F56" d="M547.826,50.907l-0.187,0.366c-0.074,0.216-0.101,0.338-0.105,0.412L547.826,50.907z"/>
							<path fill="#383F56" d="M330.968,36.097c1.13,2.272,1.689,3.572,2.038,4.447C333.169,40.616,332.754,39.539,330.968,36.097z"
								/>
							<path fill="#383F56" d="M189.29,165.795l3.199-7.16c-1.578,3.448-2.245,4.63-3.125,6.333
								C189.54,164.857,190.321,163.57,189.29,165.795z"/>
							<path fill="#383F56" d="M147.731,217.983c-1.095,0.343-2.369,0.514-3.484,0.696l0.339,0.188
								c2.448-0.3,4.443-0.985,5.208-1.319C150.549,217.173,150.169,217.364,147.731,217.983z"/>
							<path fill="#383F56" d="M184.748,171.683c-0.635,0.387-2.605,4.894-4.976,9.857c0.146-0.296,0.285-0.577,0.431-0.872
								C179.995,182.374,182.43,177.031,184.748,171.683z"/>
							<path fill="#383F56" d="M179.217,182.688c-0.74,1.525-1.515,3.077-2.293,4.544
								C176.83,187.908,177.92,185.421,179.217,182.688z"/>
							<path fill="#383F56" d="M209.761,120.993c-1.226,2.293-0.243,1.693-1.03,2.946
								C207.919,126.768,215.732,108.086,209.761,120.993z"/>
							<polygon fill="#383F56" points="181.627,175.119 182.929,173.562 183.884,170.61 							"/>
							<path fill="#383F56" d="M200.333,136.045l-3.849,7.876c0.132-0.084-0.294,0.944-0.838,2.2
								C197.941,141.233,200.555,135.921,200.333,136.045z"/>
							<path fill="#383F56" d="M195.646,146.122c-1.198,2.546-2.317,4.978-2.902,6.431
								C193.381,151.171,194.747,148.193,195.646,146.122z"/>
							<polygon fill="#383F56" points="186.614,164.222 187.806,161.917 190.451,156.32 							"/>
							<path fill="#383F56" d="M240.849,50.964c0,0,1.016-2.164,2.031-4.328c1.038-2.153,2.075-4.306,2.075-4.306
								c0.291-0.946-0.996,1.325-2.508,4.551C241.54,48.986,240.063,52.214,240.849,50.964z"/>
							<path fill="#383F56" d="M227.315,76.573c1.185-2.301,1.36-2.413,2.124-3.665l-0.44-0.526L227.315,76.573z"/>
							<path fill="#383F56" d="M239.033,51.237c0.237-0.941,5.676-12.722,0.356-1.786C239.109,50.398,235.109,59.121,239.033,51.237
								z"/>
							<polygon fill="#383F56" points="336.133,50.114 335.06,47.929 334.299,48.69 							"/>
							<path fill="#383F56" d="M392.659,163.952c-4.567-10.367-1.708-2.17-5.752-11.585c-1.34-2.312,3.304,7.698,1.965,5.311
								C391.987,163.772,393.386,167.077,392.659,163.952z"/>
							<path fill="#383F56" d="M388.872,157.678c-0.507-0.975-1.042-2.005-1.612-3.102
								C388.152,156.347,388.59,157.172,388.872,157.678z"/>
							<path fill="#383F56" d="M158.576,220.034c0,0-1.436,0.902-2.954,1.612c-1.514,0.723-3.098,1.246-3.098,1.246
								s1.042-0.285,2.057-0.67c1.021-0.37,2.015-0.829,2.015-0.829c0,0,0.505-0.326,1.004-0.658
								C158.092,220.39,158.576,220.034,158.576,220.034z"/>
							<path fill="#383F56" d="M146.714,225.374c0,0-0.429-0.097-0.852-0.209c-0.423-0.104-0.841-0.229-0.841-0.229
								s-1.006,0.255-2.04,0.451c-1.032,0.201-2.086,0.348-2.086,0.347C142.488,225.734,145.522,225.448,146.714,225.374z"/>
							<path fill="#383F56" d="M645.142,72.769l-0.376-0.441c0.322,1.098,1.029,2.657,2.433,5.778L645.142,72.769z"/>
							<polygon fill="#383F56" points="630.424,77.054 631.129,78.602 630.32,75.471 							"/>
							<path fill="#383F56" d="M585.334,15.385c2.926,0.267,6.182,1.142,8.676,2.681c-2.744-1.549-5.098-2.305-6.691-2.684
								C585.727,15.011,584.962,15,585.334,15.385z"/>
						</g>
					</g>
				</g>
			</g>
		</g>
	</g>
</g>
<g id="Layer_1">
	<g>
		<g>
			<g>
				<g>
					<g>
						<g>
							<path fill="#EE327E" d="M583.372,229.809c-3.429,0.098-2.194,0.436-2.712,0.537c2.891-0.079,3.532-0.342,3.465-0.436
								C584.058,229.799,583.296,229.759,583.372,229.809z"/>
							<path fill="#EE327E" d="M622.934,194.525l-0.303,0.921c0,0,0.839-1.805,1.679-3.609c0.813-1.813,1.626-3.625,1.626-3.625
								s-0.741,1.581-1.481,3.163C623.694,192.95,622.934,194.525,622.934,194.525z"/>
							<path fill="#EE327E" d="M644.669,149.265c-2.653,3.99-7.528,16.528-11.58,24.506l-0.777,1.264l-1.221,3.89
								C635.716,169.072,641.253,156.104,644.669,149.265z"/>
							<path fill="#EE327E" d="M657.462,125.779c-0.958,1.365,2.275-5.311-2.764,5.575c0.294-0.528,0.379-0.682,0.549-0.987
								C655.716,129.395,656.362,128.056,657.462,125.779z"/>
							<path fill="#EE327E" d="M655.247,130.366C652.998,135.132,656.941,127.353,655.247,130.366L655.247,130.366z"/>
							<path fill="#EE327E" d="M648.129,112.655l11.627-0.249c-0.614-0.041-1.786-0.074-3.144-0.103
								c-1.296-0.024-2.746-0.051-3.993-0.074c-1.074-0.03-1.974-0.055-2.392-0.066c-0.527-0.023-0.458-0.047,0.623-0.078
								c-0.837,0.01-1.612,0.019-2.326,0.026c-0.354,0.005-0.694,0.009-1.02,0.013c-0.036,0.008-0.091-0.015-0.111,0.018
								l-0.052,0.11l-0.102,0.216c-0.067,0.143-0.133,0.281-0.197,0.417c-0.504,1.081-0.91,1.953-1.229,2.636
								c-0.139,0.31-0.259,0.577-0.36,0.804c-0.053,0.137-0.097,0.25-0.132,0.34c-0.065,0.181-0.086,0.273-0.067,0.288
								s0.077-0.05,0.169-0.182c0.045-0.067,0.1-0.15,0.164-0.247c0.03-0.049,0.064-0.103,0.1-0.159
								c0.054-0.096,0.111-0.198,0.173-0.306c0.253-0.462,0.56-1.022,0.91-1.663c0.171-0.315,0.353-0.651,0.544-1.004
								c0.095-0.175,0.191-0.354,0.291-0.537l0.074-0.138c0.02-0.054,0.048-0.096,0.114-0.075L648.129,112.655z"/>
							<path fill="#EE327E" d="M644.62,120.214l1.485-3.292C645.767,117.459,645.326,118.308,644.62,120.214z"/>
							<path fill="#EE327E" d="M655.432,112.849c0,0-2.874,0.056-5.747,0.111c-0.394,0.007-0.787,0.014-1.174,0.021
								c-0.192,0.004-0.383,0.008-0.571,0.012c-0.081,0.174-0.162,0.347-0.241,0.516c-0.315,0.672-0.609,1.3-0.861,1.838
								c-0.438,0.945-0.731,1.576-0.731,1.576c0.071-0.105,0.134-0.199,0.192-0.287c0.089-0.141,0.17-0.271,0.25-0.399
								c0.161-0.257,0.311-0.503,0.476-0.82c0.166-0.317,0.347-0.704,0.576-1.254c0.113-0.282,0.241-0.602,0.388-0.968
								c0.01-0.136,0.151-0.067,0.232-0.099c0.097-0.01,0.195-0.021,0.298-0.031c0.206-0.023,0.426-0.047,0.66-0.073
								c-0.465,0.105-0.105,0.108,1.033,0.064c0.288-0.011,0.625-0.025,1.01-0.04c0.317-0.015,0.676-0.032,1.072-0.051
								C652.676,112.927,654.093,112.886,655.432,112.849z"/>
							<path fill="#EE327E" d="M662.58,112.958c0.186,0.005,0.372,0.01,0.566,0.016c-1.521,2.937-3.093,6.014-3.709,7.11
								c-0.294,0.521-0.366,0.581-0.107-0.056c0.274-0.664,0.896-2.056,1.954-4.355c-1.074,2.249-1.995,4.178-2.77,5.799
								c-0.286,0.623-0.545,1.186-0.777,1.69c-0.194,0.439-0.366,0.827-0.517,1.166c-0.59,1.357-0.789,1.932-0.641,1.768
								c0.147-0.164,0.643-1.066,1.451-2.658c0.545-1.1,1.205-2.433,1.976-3.99c0.925-1.894,1.981-4.061,3.167-6.49
								C663.021,112.957,662.802,112.957,662.58,112.958z"/>
							<path fill="#EE327E" d="M645.081,146.633l-2.391,4.64l-1.684,4.191C641.847,153.37,645.419,146.434,645.081,146.633z"/>
							<path fill="#EE327E" d="M628.145,153.098c-0.045,0.458,1.352-1.948,1.747-2.338l2.005-4.732
								C630.689,148.38,628.497,152.876,628.145,153.098z"/>
							<path fill="#EE327E" d="M629.892,150.76l-3.002,7.078C629.811,151.628,630.226,150.437,629.892,150.76z"/>
							<path fill="#EE327E" d="M644.792,121.678c0,0,0.314-0.726,0.785-1.814c0.235-0.544,0.511-1.179,0.807-1.859
								c0.147-0.34,0.301-0.691,0.456-1.048c0.231-0.513,0.468-1.033,0.703-1.554c0.244-0.538,0.489-1.076,0.729-1.606
								c0.042-0.048,0.035-0.174,0.116-0.16l0.212-0.006l0.421-0.012c0.28-0.008,0.558-0.017,0.831-0.024
								c0.991-0.032,1.917-0.063,2.71-0.088c1.716-0.051,2.859-0.085,2.859-0.085s-1.296,0.035-3.24,0.087
								c-1.019,0.026-2.207,0.057-3.48,0.089l-0.245,0.006l-0.123,0.003c-0.028,0.022-0.038,0.072-0.059,0.107l-0.214,0.465
								c-0.143,0.31-0.287,0.624-0.433,0.94c-0.279,0.611-0.563,1.231-0.848,1.852c-1.521,3.452-3.04,6.904-3.04,6.904
								L644.792,121.678z"/>
							<path fill="#EE327E" d="M615.603,179.548l1.587-4.042c0,0-0.727,1.79-1.454,3.58c-0.741,1.781-1.482,3.563-1.482,3.563
								L615.603,179.548z"/>
							<path fill="#EE327E" d="M606.557,196.458c1.391-2.813-2.673,3.386-1.088,0.482c-2.656,4.361-5.008,7.941-7.444,10.792
								C600.685,204.776,603.325,201.28,606.557,196.458z"/>
							<path fill="#EE327E" d="M593.555,211.99c1.552-1.135,3.013-2.555,4.47-4.258C596.608,209.302,595.137,210.719,593.555,211.99
								z"/>
							<path fill="#EE327E" d="M621.274,169.646c-0.339,0.494-1.036,1.431-2.99,5.252l1.688-2.528
								C620.369,171.54,620.818,170.601,621.274,169.646z"/>
							<path fill="#EE327E" d="M620.03,172.28l-0.058,0.09c-1.434,2.938-2.427,4.973-2.853,5.847
								C617.487,177.467,618.364,175.68,620.03,172.28z"/>
							<path fill="#EE327E" d="M621.603,168.959c-0.121,0.253-0.21,0.439-0.328,0.688
								C621.437,169.401,621.525,169.25,621.603,168.959z"/>
							<path fill="#EE327E" d="M635.79,139.731c-1.698,4.196-5.427,12.844-1.258,4.732
								C635.636,141.403,633.241,146.046,635.79,139.731z"/>
							<path fill="#EE327E" d="M623.682,165.797l3.54-7.349c-0.17,0.097-0.94,1.362-0.104-0.715L623.682,165.797z"/>
							<polygon fill="#EE327E" points="622.104,169.466 623.682,165.797 622.362,168.517 							"/>
							<path fill="#EE327E" d="M602.899,203.013c-1.865,2.829-4.215,5.729-7.334,8.277c3.428-2.632,6.421-6.248,8.94-9.919
								C604.733,200.756,605.679,199.06,602.899,203.013z"/>
							<path fill="#EE327E" d="M611.835,188.578c-0.107,0.217-0.245,0.493-0.346,0.695
								C611.747,188.87,611.938,188.539,611.835,188.578z"/>
							<path fill="#EE327E" d="M560.754,206.343c0.128,0.189,0.239,0.354,0.37,0.549c0.052,0.021,0.093,0.032,0.155,0.064
								L560.754,206.343z"/>
							<path fill="#EE327E" d="M605,200.783c1.973-2.803,2.93-4.649,3.808-6.411c-1.259,2.256-2.664,4.6-4.302,6.999
								C604.393,201.637,604.401,201.707,605,200.783z"/>
							<path fill="#EE327E" d="M583.815,215.82c1.642-0.099,3.476-0.404,5.316-1.03c-0.768,0.225-1.944,0.501-3.013,0.672
								C585.053,215.641,584.099,215.735,583.815,215.82z"/>
							<path fill="#EE327E" d="M610.829,190.244c0.077-0.154,0.147-0.295,0.231-0.464
								C610.436,190.733,610.543,190.631,610.829,190.244z"/>
							<path fill="#EE327E" d="M610.829,190.244c-0.784,1.602-1.401,2.862-2.021,4.128c1.027-1.836,1.932-3.573,2.682-5.099
								C611.261,189.639,611.014,189.993,610.829,190.244z"/>
							<path fill="#EE327E" d="M551.195,197.426c0.711,0.296,5.505,8.215,11.034,13.978c1.482,1.289,2.495,1.86,3.002,2.029
								c0.515,0.161,0.54-0.086,0.227-0.597c-0.63-1.033-2.485-3.233-4.334-5.944c-0.142-0.031-0.247-0.014-0.957-0.722
								c-0.701-0.717-2.039-2.139-4.347-5.354c0.667,1.221,3.085,4.886,5.138,7.313c1.013,1.224,1.891,2.175,2.195,2.559
								c0.306,0.382-0.009,0.254-1.253-0.854c-1.868-1.831-3.037-3.285-3.885-4.377c-0.843-1.099-1.348-1.861-1.742-2.491
								c-0.781-1.268-1.127-2.007-2.416-4.229c0.973,1.97-1.028-0.739-3.025-3.802c-2.008-3.05-4.035-6.415-3.813-5.216
								c0,0,1.153,2.043,2.364,4.052c1.203,2.014,2.473,3.983,2.473,3.983C551.844,197.967,549.953,195.131,551.195,197.426z"/>
							<path fill="#EE327E" d="M572.441,215.217c0,0,0.711,0.242,1.438,0.429c0.726,0.193,1.468,0.33,1.467,0.331
								c-1.674-0.387-3.051-0.904-4.464-1.637c-1.412-0.731-2.858-1.697-4.551-3.197c-2.026-1.477-3.159-2.576-3.881-3.211
								c-0.713-0.653-1.004-0.882-1.172-0.976c0,0,2.516,3.015,5.572,5.201c1.517,1.104,3.146,1.992,4.421,2.529
								c1.273,0.539,2.161,0.795,2.161,0.794C573.434,215.481,572.441,215.217,572.441,215.217z"/>
							<path fill="#EE327E" d="M588.815,215.187c-0.517,0.291-1.341,0.657-2.249,0.953c-0.906,0.299-1.892,0.533-2.676,0.702
								c-1.57,0.307-2.321,0.525,0.026,0.554c2.313-0.275,3.811-0.748,4.863-1.133c1.05-0.4,1.666-0.714,2.161-1.006
								c0.497-0.286,0.879-0.542,1.423-0.907c0.543-0.365,1.253-0.832,2.339-1.657c-3.016,2.116-4.556,2.536-4.963,2.722
								c-0.432,0.145,0.162-0.121,0.846-0.481c0.688-0.354,1.443-0.84,1.455-0.921c0.003-0.109-0.682,0.33-3.105,1.183
								c2.605-1.014,4.746-2.385,6.63-3.904c-2.074,1.591-4.258,2.778-6.434,3.5c0.123-0.034,0.21-0.06,0.311-0.088l0.061-0.026
								c0.001,0.003-0.012,0.009-0.011,0.012c0.58-0.182,0.778-0.228,0.134,0.004c-0.042,0.022-0.197,0.093-0.27,0.118
								c-0.067,0.089-0.294,0.229-0.542,0.374c-3.964,1.086-0.62,0.149,0.542-0.374c0.038-0.034,0.131-0.096,0.136-0.122
								c-0.014,0.004-0.032,0.01-0.05,0.015c0,0-0.807,0.351-2.073,0.732c-1.266,0.384-3.013,0.739-4.816,0.882
								c-1.806,0.148-3.647,0.109-4.985-0.025c-1.346-0.131-2.221-0.314-2.221-0.314c1.475,0.339,3.191,0.559,5.413,0.56
								C582.973,216.512,585.666,216.309,588.815,215.187z"/>
							<path fill="#EE327E" d="M631.834,152.474c-0.24,0.427-0.26,0.395-0.304,0.415C631.149,153.834,631.02,154.2,631.834,152.474z
								"/>
							<path fill="#EE327E" d="M628.867,158.238c0.429-1.063,0.675-2.002,2.283-5.357c1.477-2.873,0.181,0.102,0.38,0.008
								c0.841-2.082,3.025-7.25-0.126-0.959l-0.416,1.034c-2.802,5.689-6.735,12.84-6.322,11.81
								C625.802,163.264,626.743,161.902,628.867,158.238z"/>
							<path fill="#EE327E" d="M612.035,190.813c0,0-1.502,2.894-3.127,5.709c-1.611,2.825-3.401,5.525-3.401,5.525
								s1.013-1.306,1.976-2.656c0.968-1.348,1.898-2.728,1.898-2.728l-0.365,0.175
								C612.828,190.478,611.717,191.687,612.035,190.813z"/>
							<path fill="#EE327E" d="M560.009,205.103c0,0,0.349,0.249,0.697,0.498c0.352,0.24,0.703,0.48,0.703,0.48
								s-1.284-1.243-2.496-2.61c-1.22-1.354-2.379-2.798-2.379-2.798s0.827,1.155,1.698,2.262
								C559.1,204.045,560.009,205.103,560.009,205.103z"/>
							<path fill="#EE327E" d="M550.969,191.203l0.647,0.351c0,0-0.586-0.942-1.173-1.885c-0.577-0.952-1.154-1.903-1.154-1.903
								L550.969,191.203z"/>
							<path fill="#EE327E" d="M82.377,83.076l1.522-3.54C83.162,81.204,82.703,82.281,82.377,83.076z"/>
							<path fill="#EE327E" d="M70.432,108.244l-0.122,0.7C70.775,107.734,70.935,107.224,70.432,108.244z"/>
							<path fill="#EE327E" d="M332.761,156.121c-2.698,4.937-5.875,10.357-5.186,9.933l1.123-1.372
								C330.29,161.102,331.599,158.398,332.761,156.121z"/>
							<path fill="#EE327E" d="M184.991,48.188c0.195,0.5,0.399,1.02,0.6,1.535c0.726,1.162,1.409,2.256,2.019,3.234
								C186.823,51.523,185.928,49.895,184.991,48.188z"/>
							<path fill="#EE327E" d="M181.631,45.44c0,0-0.767-1.675-1.535-3.35c-0.785-1.665-1.57-3.33-1.57-3.33
								C179.226,40.264,180.224,42.412,181.631,45.44z"/>
							<path fill="#EE327E" d="M179.108,49.146l2.375,3.87C178.393,46.655,179.543,49.556,179.108,49.146z"/>
							<path fill="#EE327E" d="M475.288,33.981c-2.194-4.381-4.141-7.791-6.014-10.709C472.313,28.424,474.213,32.79,475.288,33.981
								z"/>
							<path fill="#EE327E" d="M81.897,94.971c0.934-2.17,1.281-3.121,1.165-3.1C82.097,94.104,81.586,95.382,81.897,94.971z"/>
							<path fill="#EE327E" d="M460.371,11.851c0.6,0.672,1.178,1.333,1.752,2.039c2.497,2.727,4.758,5.657,7.151,9.383
								C467.034,19.482,464.091,15.23,460.371,11.851z"/>
							<path fill="#EE327E" d="M476.765,55.889c0.158,0.372,0.349,0.817,0.493,1.155C477.363,57.129,477.125,56.624,476.765,55.889z
								"/>
							<path fill="#EE327E" d="M542.684,202.966c-0.857-1.359-2.172-3.623-3.362-5.776
								C539.878,198.25,540.844,200.017,542.684,202.966z"/>
							<path fill="#EE327E" d="M521.544,129.456C523.121,132.714,521.833,129.953,521.544,129.456L521.544,129.456z"/>
							<path fill="#EE327E" d="M527.475,146.104c-0.369-0.676-0.672-1.178-0.801-1.218
								C526.895,145.112,527.167,145.54,527.475,146.104z"/>
							<path fill="#EE327E" d="M425.612,3.665c-0.104,0.021-0.187,0.038-0.306,0.063C426.375,3.591,426.189,3.613,425.612,3.665z"/>
							<path fill="#EE327E" d="M523.695,134.462c-0.531-1.251-1.16-2.686-1.862-4.239
								C522.134,130.909,522.7,132.197,523.695,134.462z"/>
							<path fill="#EE327E" d="M523.568,133.712c0.517,1.135,0.924,2.029,1.311,2.879
								C525.138,136.974,525.009,136.588,523.568,133.712z"/>
							<path fill="#EE327E" d="M519.352,124.913c0.9,1.865,1.713,3.618,2.481,5.31c-0.279-0.655-0.385-0.934-0.289-0.768
								C521.082,128.499,520.432,127.151,519.352,124.913z"/>
							<path fill="#EE327E" d="M318.248,205.799c0.141-0.189,0.303-0.407,0.457-0.614
								C320.492,202.049,319.685,203.413,318.248,205.799z"/>
							<path fill="#EE327E" d="M274.273,218.456c0.171,0.067,0.263,0.104,0.418,0.164c-0.166-0.079-0.373-0.179-0.523-0.251
								L274.273,218.456z"/>
							<path fill="#EE327E" d="M263.158,210.302c2.135,1.983,3.906,3.442,5.613,4.714c1.713,1.261,3.359,2.355,5.397,3.354
								c0,0-0.933-0.765-1.758-1.598c-0.832-0.831-1.561-1.714-1.561-1.714s-0.513-0.22-1.268-0.598
								c-0.751-0.38-1.744-0.923-2.707-1.526C264.948,211.73,263.158,210.302,263.158,210.302z"/>
							<path fill="#EE327E" d="M113.132,23.299c0,0-1.512,1.827-2.89,3.729c-1.391,1.896-2.677,3.842-2.677,3.843
								c2.621-4.991,5.566-9.04,7.121-10.944c0.765-0.959,1.14-1.408,0.879-1.228c-0.255,0.184-1.141,1-2.675,2.698
								c0.056,0.483-1.387,2.556-3.25,5.545c-1.878,2.984-4.166,6.892-6.287,10.852c-4.242,7.92-7.973,15.978-7.653,16.837
								l-2.846,5.32c0.749-1.556,0.795-1.839,1.541-3.375c-5.595,10.315-2.823,8.287-9.353,21.86
								c-2.304,4.715-4.029,7.948-2.666,4.639L77.731,93.8c-1.475,3.062-1.332,2.21,0.133-0.838c0,0-1.882,4.035-3.764,8.071
								c-1.906,4.023-3.813,8.047-3.813,8.047l0.022-0.136c-0.236,0.592-0.546,1.371-0.896,2.247
								c-0.174,0.427-0.358,0.877-0.547,1.34c-0.09,0.255-0.182,0.517-0.274,0.78c-0.052,0.134-0.097,0.284-0.158,0.412
								l-0.402,0.046c-0.284,0.029-0.563,0.058-0.83,0.085c-0.231,0.013-0.457,0.026-0.676,0.039
								c-0.147,0.012-0.291,0.024-0.428,0.036c-0.265,0.022-0.509,0.043-0.724,0.061c-1.304-0.098-0.885-0.133-0.321-0.166
								c0.583-0.033,1.349-0.063,1.048-0.147c-1.057,0.06-2.113,0.119-3.072,0.117l0.833-2.184c0.5-0.764,0.6-0.702,0.468-0.193
								c-0.1,0.439-0.368,1.191-0.706,2.005c0.474-0.017,0.989-0.035,1.518-0.054c0.25-0.003,0.503-0.006,0.756-0.01
								c0.334,0.002,0.667,0.003,0.995,0.005c-0.159-0.026-0.407-0.052-0.481-0.076l-0.204-0.07c-0.118-0.042-0.23-0.081-0.339-0.12
								c-0.178-0.061-0.341-0.116-0.495-0.168c-0.276-0.085-0.505-0.111-0.778-0.114c0.128-0.268,0.197-0.502,0.294-0.821
								c0.052-0.167,0.096-0.324,0.182-0.565c0.054-0.142,0.11-0.289,0.168-0.443l0.047-0.119l0.079-0.187
								c0.076-0.173,0.154-0.35,0.234-0.531c1.288-2.897,3.146-6.857,6.271-12.948l-3.804,8.536
								c3.274-5.119,6.089-11.863,10.912-21.25c-1.255,2.172-9.935,18.687-5.745,8.801c1.36-2.703,3.064-6.305,5.224-11.674
								c0.465,0.151,2.693-5.024,5.653-11.435l0.376,0.707c3.054-6.999,2.503-6.587,4.15-10.773
								c3.682-7.659,4.918-9.009,6.162-10.62c6.105-12.091-4.887,8.024,2.158-6.386c2.663-4.964,4.926-9.167,7.435-13.516
								c1.263-2.167,2.585-4.375,4.117-6.674c1.528-2.301,3.261-4.702,5.417-7.16c5.523-5.216-0.679,1.185,1.379-0.607
								c0,0,1.078-1.28,2.257-2.458c1.171-1.187,2.456-2.246,2.456-2.247c1.342-0.916,1.004-0.469,0.825-0.269
								c2.275-1.574,2.343-1.701,2.716-2.092c0.192-0.188,0.473-0.426,1.212-0.846c0.745-0.403,1.943-1.023,4.068-1.691
								c0.526-0.334,1.928-0.754,3.93-1.018c2.005-0.246,4.596-0.371,7.426-0.093c2.838,0.251,5.876,0.843,8.743,1.821
								c2.875,0.962,5.558,2.334,7.924,3.74c1.053,0.856,0.717,0.754,0.21,0.504c-0.52-0.231-1.228-0.581-0.961-0.247
								c3.127,1.979,5.113,3.851,6.638,5.329c1.51,1.506,2.544,2.678,3.509,3.799c1.903,2.27,3.611,4.276,7.266,9.588
								c0,0,1.328,2.403,2.567,4.858c1.25,2.448,2.434,4.934,2.434,4.934c-3.412-7.346,2.084,1.422,6.464,9.427
								c-1.058-2.691-1.981-4.988-2.648-6.507c0,0,1.725,3.201,3.394,6.431c1.653,3.238,3.307,6.475,3.307,6.475
								c0.659,1.631-0.166,0.401-1.434-1.631c0.478,0.87,0.931,1.694,1.284,2.336c2.009,4.798,0.525,2.518-1.393-0.687
								c-0.646-1.652-1.286-3.29-1.91-4.883c-1.914-3.06-3.803-5.856-3.804-5.021c0.489,0.806,1.351,2.402,2.259,4.178
								c-0.507-0.794-0.854-1.289-0.721-0.872c0.156,0.471,0.95,1.765,2.125,3.829l0.781,3.28l0.599,0.6l7.645,17.384
								c6.398,12.021,12.283,22.336,22.039,41.583c-2.825-4.578-1.273-0.657-1.958-0.646c-2.012-5.576-7.57-14.922-12.203-25.115
								c2.425,5.313,1.614,4.277,0.885,2.978c0,0,2.276,4.445,4.553,8.891c2.303,4.431,4.606,8.863,4.606,8.863
								c-0.659-0.184,1.525,3.983,3.616,8.745c-0.805-3.984,7.082,13.071,10.775,20.297c-0.096,0.602-1.213-1.022-5.392-9.987
								c4.006,10.176,7.096,12.247,11.044,22.236c-1.027-2.188-1.531-3.391-2.088-4.184c2.653,4.988,8.258,17.612,6.625,14.789
								l-1.024-2.185c3.343,7.297,8.46,18.403,13.402,27.742c2.469,4.668,4.923,8.879,6.977,11.964
								c2.047,3.091,3.673,5.053,4.197,5.419c0.001,0.205-2.072-1.148-2.762-1.89c0,0,1.138,1.443,3.001,3.48
								c1.858,2.032,4.491,4.648,7.49,6.752c2.982,2.137,6.349,3.562,8.926,4.146c1.291,0.302,2.374,0.453,3.135,0.522
								c0.76,0.07,1.194,0.091,1.194,0.091c-1.273,0.159,0.342,1.062,0.747,1.676c0.19,0.306,0.049,0.592-1.033,0.668
								c-1.065,0.044-3.153-0.02-6.535-1.315c1.879,0.859,4.113,1.627,6.966,2.024c1.425,0.199,2.997,0.292,4.735,0.241
								c1.738-0.049,3.68-0.243,5.792-0.759c-1.39,0.254-3.151,0.193-4.055-0.017c-0.909-0.216-0.991-0.432,0.829-0.619
								c2.528-0.053,4.247-0.388,5.558-0.708c1.313-0.333,2.235-0.664,3.206-1.067c0.964-0.417,1.987-0.902,3.414-1.756
								c1.413-0.867,3.257-2.095,5.599-4.228c-1.518,1.391-1.66,1.047-0.85-0.148c0.803-1.204,2.412-3.349,4.299-5.829
								c-0.461,0.884,1.236,0.268-0.108,2.174c0,0,0.576-0.814,1.37-2.066c0.797-1.251,1.804-2.938,2.739-4.653
								c1.881-3.424,3.51-6.934,3.51-6.934c-1.751,3.445,0.516,1.088,2.461-1.817c-0.486,0.653,1.147-2.28,3.008-5.888
								c1.871-3.603,3.982-7.872,4.823-9.747l-3.106,5.758c3.935-7.773,5.368-11.839,6.823-15.875
								c1.443-4.04,2.851-8.073,6.505-15.866c-0.667,1.987-0.874,5.268,2.947-2.609c1.176-3.874,4.971-17.28,11.244-31.192
								l1.577-2.483l4.776-10.666c-1.175,3.466-3.639,9.971-6.28,16.925c-2.64,6.953-5.44,14.352-7.484,19.547
								c3-5.758,1.109-1.475,5.247-10.264c1.752-2.964-1.854,4.979-3.05,7.575c0,0,2.469-5.084,4.938-10.169
								c2.503-5.066,5.005-10.131,5.005-10.131c-1.041,0.631,6.993-15.878,6.084-15.351l-10.11,22.431
								c-0.517,0.304,0.585-3.106,2.736-8.377c2.165-5.267,5.339-12.424,8.833-19.646c1.994-3.574-0.23,3.273,0.112,3.068
								c0.703-1.977,6.121-13.966,6.884-15.236l-2.567,6.319c4.036-7.982,5.369-13.593,10.478-23.05
								c1.598-3.344,5.467-9.64,5.386-10.384c-3.269,5.123-5.915,5.199-4.725,1.302c0.301-0.577,2.533-4.907,5.024-9.52
								c2.481-4.618,5.272-9.488,6.438-11.265c1.7-2.553,0.929-0.363,0.13,1.921c-0.799,2.287-1.623,4.676-0.223,2.488
								c-0.065-0.282,1.272-3.368,1.872-4.633c1.991-3.317-0.311,1.641,3.714-5.708c0.042-0.782,2.228-4.442,3.595-6.463
								c0.679-1.014,1.122-1.642,0.901-1.369c-0.216,0.276-1.121,1.432-2.969,4.135c2.069-3.54,3.351-5.302,4.776-7.163
								c0.721-0.923,1.478-1.874,2.463-3.023c0.986-1.147,2.182-2.515,3.868-4.168c-1.201,0.926-0.072-0.938,2.499-3.45
								c1.289-1.247,2.977-2.608,4.89-3.774c1.911-1.165,4.043-2.124,6.054-2.733c-0.425,0.294,1.438,0.001,2.34-0.058
								c4.15-0.838,7.936-0.87,11.383-0.509c3.45,0.375,6.581,1.191,9.481,2.437c5.804,2.524,10.642,6.648,15.519,12.777
								c0.393,0.613,1.687,2.462,2.549,3.896c0.865,1.433,1.361,2.402,0.339,1.154c1.355,1.795,2.709,3.393,5.171,7.579
								c2.064,4.229,0.721,1.875-0.807-0.679c-1.542-2.551-3.333-5.25-1.748-2.048c0.33,0.152,2.079,2.745,4.077,6.124
								c2.005,3.374,4.253,7.529,5.908,10.576c-0.203-1.089-1.961-4.694-4.212-8.712c-2.239-4.025-5.029-8.418-7.032-11.228
								c0.331-0.24,2.385,2.014,5.242,6.258c2.868,4.233,6.475,10.464,10.257,17.83c5.875,11.768,1.963,5.378,3.062,7.384
								c10.346,22.399,10.174,18.448,18.361,37.212c3,7.563-0.811,0.79-0.388,2.583c-4.771-9.575-6.682-15.001-9.762-21.564
								l3.538,8.198c-1.604-3.006-4.735-9.424-6.233-13.018c1.222,3.188,5.564,12.656,10.654,23.462
								c5.057,10.821,11.05,22.891,14.955,31.566c1.628,2.969,4.298,8.162,3.308,5.574l-2.661-5.402
								c-1.995-5.183,5.427,9.971,2.324,3.002c3.756,7.162,8.031,15.167,12.597,25.583l0.344,2.195
								c0.06-0.297-2.799-6.894-4.32-9.713c2.252,4.181,6.59,16.164,9.53,20.52l-2.988-7.398
								c3.712,7.215,8.501,16.029,12.868,25.034c-1.509-4.341-1.126-2.017-3.617-8.732c0.953,2.973-1.852-2.796-4.382-8.198
								c-2.535-5.396-4.852-10.388-3.169-5.675c-2.359-7.001-5.036-11.675-8.472-20.681c-0.06,0.355,1.098,3.247-2.409-4.461
								c-0.217-0.321-0.668-1.105-0.953-1.604c-0.104-0.238-0.141-0.321-0.23-0.525c0.064,0.157,0.113,0.275,0.178,0.433
								c-0.184-0.318-0.203-0.345,0.067,0.162c0.779,1.862,1.377,3.386,1.557,4.035c-2.191-3.612-7.956-15.782-10.173-19.767
								c-2.105-4.563,1.126,1.79,0.123-0.773l-3.305-5.958c0.101-0.8-5.162-12.296,0.243-1.798l-4.616-9.569
								c-2.485-5.745-6.066-13.569-8.484-18.302c-2.037-4.582-5.801-11.277-3.64-7.461l-7.301-15.02l0.036-0.187
								c-3.479-7.476-7.279-15.084-11.456-22.874c-2.099-3.891-4.292-7.827-6.694-11.77c-2.409-3.938-5.006-7.901-8.107-11.723
								c-1.964-2.126-4.11-4.198-6.915-6.292c-2.807-2.063-6.318-4.206-11.103-5.682c0,0-0.443-0.225-0.887-0.449
								c-0.452-0.211-0.903-0.422-0.903-0.422c-1.886-0.41-4.264-0.794-6.805-0.948c-2.559-0.188-5.296-0.093-7.877,0.222
								c-2.591,0.317-5.038,0.914-6.972,1.609c-1.94,0.685-3.37,1.43-4.066,1.893c-1.98,0.696-5.053,2.339-8.168,5.007
								c-3.146,2.636-6.272,6.237-9.053,10.147c-5.564,7.845-9.962,16.8-12.911,22.376l0.238,0.652
								c-3.921,7.742-7.304,15.306-11.637,25.093l0.684-0.407c-3.563,8.52-10.249,21.376-16.516,34.523
								c0.274-0.966,1.91-4.278,3.125-6.597c-4.179,7.659-8.045,15.946-11.798,24.151c-3.729,8.198-7.256,16.258-10.939,23.267
								c-1.521,3.639-2.774,6.202-4.042,8.659c0.153-0.332,0.285-0.634,0.39-0.895c-0.171,0.365-0.426,0.907-0.687,1.464
								c-0.802,1.545-1.628,3.137-2.522,4.859c0.794-1.448,1.541-2.843,2.157-4.07c-1.272,2.759-3.16,6.959-4.969,11.094
								l-1.251,1.537c-0.15,0.332-0.273,0.603-0.43,0.949c-2.043,3.927-1.309,3.314,0.025,1.334
								c-0.895,2.088-1.698,4.009-2.29,5.514c-2.235,2.907-4.902,10.764-7.924,14.691c-0.526,1.426-3.065,6.46-5.883,11.19
								c-1.406,2.367-2.887,4.65-4.123,6.44c-1.232,1.795-2.208,3.109-2.45,3.685c-0.188,0.032-1.089,0.96,0.494-0.807
								c-3.295,3.652-7.163,6.585-11.085,8.318c0,0-0.528,0.042-1.052,0.053c-0.522,0.019-1.04,0.003-1.04,0.003
								s-0.591,0.237-1.516,0.512c-0.923,0.279-2.187,0.577-3.486,0.769c-1.298,0.196-2.629,0.29-3.623,0.314
								c-0.996,0.026-1.66-0.005-1.66-0.005c-3.189-0.537-5.233-1.513-5.783-1.885c-0.277-0.192-0.186-0.241,0.341-0.146
								c0.526,0.096,1.488,0.345,3,0.558c-3.629-0.635-5.992-1.876-7.736-2.923c-1.738-1.086-2.879-2.034-3.933-2.97
								c-1.049-0.945-2.015-1.889-3.255-3.235c-1.236-1.351-2.759-3.098-4.783-5.791l0.694,0.319
								c-2.749-3.9-6.966-10.421-8.021-13.175c-1.105-2.479-3.161-6.712-5.715-12.122c-2.535-5.428-5.607-12.005-8.904-19.063
								c-6.562-14.167-14.019-30.269-19.898-42.963c1.328,5.38-5.237-11.892-6.5-12.503c-0.457-1.584-1.995-5.161,0.174-1.188
								c-6.393-12.733-8.748-19.536-13.596-28.14c-0.437-1.597,1.653,2.598,1.19,1.212c-0.537-1.013-2.127-4.008-2.604-5.424
								c-0.463-1.387,1.091,1.797,2.151,3.794c-6.182-13.199-7.607-14.172-8.774-14.791c-2.821-6.841-4.484-10.15-7.352-14.691
								c-0.941-2.411-2.641-6.383,1.548,1.687c-1.127-2.292-4.519-9.333-8.223-15.614c-1.844-3.142-3.776-6.082-5.358-8.198
								c-1.574-2.123-2.778-3.423-2.979-3.429c-0.447-0.684-1.595-2.099-2.835-3.397c-1.23-1.307-2.56-2.479-3.098-2.914
								c-2.187-1.973-4.067-3.303-5.733-4.318c-1.669-1.015-3.123-1.733-4.612-2.341c-1.491-0.605-3.018-1.11-4.894-1.551
								c-1.876-0.431-4.111-0.791-7.003-0.909c0,0,0.801,0.055,1.599,0.155c0.799,0.082,1.593,0.213,1.593,0.213
								c-2.314,0.121-4.674,0.018-7.651,0.182c-2.943,0.185-6.59,0.548-10.911,2.363l0.219-0.173
								c-2.512,0.947-4.411,2.009-5.899,2.95c-1.489,0.946-2.567,1.79-3.413,2.49c-1.688,1.41-2.462,2.254-3.238,3.074
								c-0.769,0.827-1.518,1.657-2.913,3.276c-1.375,1.631-3.409,4.054-6.347,8.325l1.015-0.682
								c-0.104,1.084-2.707,4.815-5.706,9.791c-3.013,4.963-6.453,11.133-8.858,16.578l2.129-3.741
								c-2.57,5.97-9.097,15.782-11.957,21.642c-0.681,1.25,0.815-2.094,1.594-3.921c-7.744,15.219-0.378,2.265-5.577,13.875
								c-1.285,1.989,0.476-3.106-3.147,4.646c-0.976,1.809-3.165,7.207-5.817,13.446c-1.327,3.12-2.771,6.449-4.24,9.646
								c-0.773,1.679-1.32,2.845-2.548,5.357c-1.145,2.33-2.281,4.575-3.406,6.739c0.737,0.024,1.423,0.047,2.09,0.069
								c-0.724-0.052-1.438-0.096-1.954-0.154c1.269-2.224,1.933-3.225,0.731-0.457c0.47-0.029,1.673-0.074,3.217-0.107
								c1.599,0.004,3.338,0.009,5.18,0.014c0.831,0.012,1.686,0.024,2.559,0.037c0.493,0.008,0.991,0.016,1.494,0.024l0.38,0.006
								l0.191,0.003c0.069,0.009,0.068-0.093,0.106-0.134l0.345-0.674c1.428-2.75,2.949-5.68,4.457-8.583
								c2.753-5.35,5.336-10.662,6.702-14.54c0.554-1.012,0.8-1.377,0.879-1.393c2.75-6.36,9.159-20.538,10.523-24.496
								c2.114-2.539,6.429-12.377,10.711-21.291c2.14-4.457,4.307-8.665,6.091-11.649c1.777-2.99,3.143-4.754,3.433-4.514
								c0,0,0.707-1.096,1.836-2.678c1.126-1.583,2.708-3.627,4.451-5.481c1.735-1.864,3.662-3.486,5.206-4.525
								c1.545-1.04,2.659-1.566,2.659-1.566l-0.386,0.372c2.783-1.437,5.347-2.067,7.582-2.389c2.26-0.324,4.121-0.329,5.768-0.232
								c3.267,0.216,5.461,0.75,7.592,1.51c2.611,1.411,0.599,0.574,0.36,0.529c2.061,1.056,3.734,2.294,5.154,3.526
								c1.424,1.228,2.59,2.465,3.625,3.626c2.055,2.343,3.559,4.427,4.986,6.449c2.82,4.078,5.347,7.941,9.512,15.125l0.347,1.761
								c1.158,1.932,4.176,8.423,7.873,16.676c3.708,8.247,8.169,18.223,12.569,26.932c-0.132-0.149-0.39-0.474-1.109-1.847
								c4.899,9.817,10.239,21.836,15.103,32.142c4.822,10.297,8.89,19.031,11.417,22.28l6.525,12.916
								c-7.778-17.025,1.89,2.194-1.091-4.911c3.204,6.629,7.531,17.489,3.634,9.322l-0.515-1.321
								c-1.125-1.309,1.244,4.002,3.814,9.613c2.564,5.613,5.38,11.508,4.985,11.418c4.026,8.305,8.083,16.558,12.832,24.438
								c2.382,3.933,4.956,7.769,7.932,11.33c2.971,3.551,6.397,6.832,10.418,9.333c4.004,2.52,8.594,4.11,13.218,4.751
								c4.628,0.625,9.252,0.568,13.847-0.303c4.58-0.87,8.998-2.749,12.786-5.393c3.807-2.632,7.005-5.909,9.809-9.357
								c0,0-0.785,0.686-1.596,1.338c-0.805,0.658-1.632,1.282-1.632,1.282s2.114-2.259,3.959-4.709
								c1.874-2.431,3.544-4.983,3.544-4.983c0.949-1.291,1.635-2.129,1.516-1.716c-0.134,0.405-1.012,2.103-3.587,5.665
								c1.541-1.743,3.507-4.862,4.975-7.605c1.472-2.744,2.506-5.089,2.497-5.234c2.122-3.665,2.964-5.143,3.173-5.321
								c0.202-0.182-0.264,0.921-0.924,2.34c-1.305,2.843-3.497,6.913-2.19,4.65c0,0,0.85-1.554,1.7-3.108
								c0.823-1.563,1.646-3.127,1.646-3.127l-0.823,1.367c2.396-5.206,2.382-5.781,6.944-15.069
								c2.959-5.839,1.856-2.835,2.988-5.148c0.02,0.018,0.128-0.167,0.392-0.709c0.262-0.543,0.679-1.443,1.312-2.855l6.467-13.726
								l-3.08,5.256c2.575-6.217,6.038-12.915,2.495-6.849c2.625-4.444,8.65-17.229,14.583-29.502
								c2.979-6.138,5.902-12.166,8.255-17.013c2.342-4.857,4.107-8.536,4.854-9.928c3.659-8.691,7.579-17.12,12.477-27.537
								c-1.313,2.545-2.631,3.82,1.637-5.142c-0.326,3.859,8.179-16.259,12.809-22.831c-1.9,3.03,1.186-3.285,4.405-8.894
								c3.189-5.625,6.707-10.39,3.119-6.15c2.371-3.331,2.613-3.289,2.642-3.117c0.059,0.203-0.061,0.545,1.983-1.704
								c2.933-3.716,6.638-7.164,11.286-9.016c4.613-1.835,10.153-2.119,15.247-0.707c5.123,1.386,9.554,4.882,13.222,9.253
								c3.692,4.375,6.811,9.473,9.792,14.696c0.338,0.249-1.403-3.418,1.35,0.981c0,0,1.344,2.908,2.605,5.855
								c1.27,2.944,2.484,5.915,2.484,5.915c2.179,4.267,2.868,3.515,6.073,11.712c-0.395-1.183-0.983-2.955,0.443-0.063
								c4.88,10.881,9.853,21.88,15.042,32.87c2.593,5.496,5.232,10.991,7.918,16.479c2.688,5.477,5.382,10.965,8.078,16.458
								c5.338,11.003,10.519,22.111,15.589,33.249c5.097,11.131,10.002,22.312,15.392,33.298c-2.771-6.022-0.735-2.109,1.702,2.321
								c-1.509-2.923,0.416-0.143,0.314-0.825c0,0,2.274,4.571,4.896,9.002c1.302,2.218,2.708,4.391,3.819,5.99
								c1.112,1.6,1.911,2.636,1.911,2.636c1.445,1.26,5.063,5.586,9.586,8.737c2.235,1.583,4.637,2.866,6.648,3.631
								c2.005,0.788,3.579,1.118,4.149,1.105c0,0-1.625-0.396-3.201-0.969c-1.581-0.558-3.09-1.299-3.09-1.299
								c2.088,0.813,2.481,0.69,1.894,0.241c-0.575-0.479-2.085-1.4-3.64-2.615c-3.173-2.383-6.224-6.067-5.435-5.984
								c-1.835-1.449-3.688-3.473-5.494-5.884c-1.803-2.418-3.552-5.231-5.283-8.274c-3.461-6.093-6.861-13.094-10.864-19.852
								c-1.351-3.188,1.58,2.509,0.963,0.75c-2.126-3.372-4.298-7.654-7.907-15.795l0.52,0.868
								c-10.679-22.611-14.709-32.624-26.855-57.992l0.484,2.078c-2.583-5.456-2.992-6.668-4.109-9.268
								c-1.817-2.969-0.004,0.862,1.856,4.756c1.858,3.895,3.766,7.851,2.024,5.189c-1.328-3.807-5.949-13.39-10.31-22.744
								c-4.366-9.351-8.529-18.447-9.183-21.133c-3.928-8.434,0.66,2.701-3.271-5.726l-0.78-2.36l-1.349-1.964
								c-2.552-5.545-3.586-8.475-3.457-8.793c0.626,1.347,1.902,3.767,2.606,5.192c-1.549-3.652-4.017-8.676-6.345-13.061
								c-2.313-4.391-4.53-8.12-5.181-9.338c0,0,1.103,1.985,2.142,3.991c1.021,2.011,2.044,4.021,2.044,4.021
								c-3.039-5.625-6.327-11.564-10.518-17.262c-2.105-2.835-4.466-5.609-7.283-8.035c-2.799-2.425-6.138-4.449-9.786-5.593
								c-3.649-1.141-7.44-1.511-11.161-1.161c-3.7,0.321-7.385,1.417-10.573,3.216c-3.205,1.782-5.887,4.159-8.167,6.656
								c-2.278,2.512-4.186,5.164-5.879,7.792l1.266-1.433c-2.662,3.964-4.276,6.852-5.598,9.124
								c-1.292,2.283-2.25,3.976-3.236,5.72c-1.938,3.498-3.997,7.204-8.344,16.537l0.274-0.699
								c-1.576,3.814-3.806,8.838-6.201,13.928c1.951-4.817-4.579,8.64-1.972,2.346c-8.16,18.584-3.907,9.25-8.849,21.733
								l-1.654,2.634c-1.66,4.266-1.645,4.696-6.021,13.973c3.378-7.709-3.359,5.645,0.365-3.018
								c-10.194,18.974-13.191,29.163-18.447,37.602c-3.28,9.391,8.446-16.637,6.3-11.521c2.292-4.048-2.815,7.703-5.755,13.789
								c-2.943,6.216-6.095,10.081-13.436,25.724c0.74-1.553,0.72-1.69,1.454-3.24c-2.997,5.731-5.09,11.611-9.072,18.451
								c-1.456,4.239-4.864,8.994-4.835,10.473c0,0,1.94-3.426,3.74-6.94c1.814-3.506,3.531-7.069,3.531-7.069
								c-1.915,4.055-3.651,8.043-5.965,12.552c-1.165,2.248-2.47,4.63-4.077,7.161c-1.603,2.529-3.506,5.221-5.931,7.964
								c0.303-0.49,1.104-1.606,1.996-2.941c0.894-1.333,1.877-2.885,2.656-4.165c-2.564,3.414-4.635,6.826-7.858,9.814
								c0.165-0.708,3.358-4.103,6.575-8.889c3.261-4.74,6.613-10.729,8.574-15.1c-1.22,1.966-3.255,5.994-4.908,8.878
								c-1.643,2.893-2.827,4.673-1.901,2.447c-1.368,3.166-3.737,6.659-6.865,10.154c-3.143,3.487-7.019,6.945-11.835,9.664
								l0.444-0.745c-0.751,0.422-1.924,1.046-3.333,1.599c-1.406,0.559-3.047,1.043-4.634,1.321c0-0.001,1.414-0.4,2.753-0.939
								c1.35-0.521,2.61-1.188,2.61-1.187c-3.979,1.82-8.351,2.275-12.611,2.063c-4.275-0.203-8.314-1.083-12.175-2.569
								c1.999,0.847,3.64,1.288,4.92,1.598c1.283,0.299,2.21,0.465,2.861,0.575c1.3,0.223,1.479,0.297,1.326,0.385
								c-0.15,0.079-0.627,0.139-0.596,0.245c0.033,0.097,0.566,0.297,2.488,0.476c-5.641-0.09-9.106-1.325-11.478-2.399
								c-2.372-1.128-3.714-2.171-5.057-3.296c-1.329-1.152-2.659-2.413-4.676-4.568c-1.998-2.176-4.672-5.284-8.258-10.587
								c0.976,1.434,2.781,4.119,4.029,5.826c1.246,1.705,1.803,2.578,0.004,0.585c-2.999-3.794-6.277-9.41-7.57-12.149
								c-8.475-14.951,0.825,2.577-2.991-3.682c-2.302-5.435-4.209-7.37-7.744-14.128l0.41-0.26
								c-4.175-8.976-4.917-10.088-5.605-10.942c-0.672-0.865-1.243-1.501-4.844-9.686l3.797,6.564l-4.092-8.374l1.309,1.513
								c-4.647-9.025-5.874-11.942-9.968-21.01c0.673,2.239-1.332-0.81-5.137-8.75c-2.342-5.538,1.882,2.829-3.606-8.388
								c1.5,2.404,3.189,5.022,5.125,10.12c0.382,0.436,1.468,2.382,1.854,2.833c-2.466-5.992-6.958-14.706-8.961-18.761
								c0.751,1.571,1.64,3.454,2.044,4.444l-8.499-15.96c-1.065-2.643,0.039-0.67,1.136,1.28c-1.631-3.273-2.924-5.46-5.263-10.305
								c0.953,1.089,1.165,0.622,4.611,7.407l-7.75-15.363c-0.335-1.112-3.312-8.203-2.236-6.239
								c-3.839-8.743-10.488-20.949-15.822-32.508c-0.363-0.559-1.009-1.719-2.284-4.113c-2.68-5.36-5.219-10.441-8.386-15.584
								c-1.587-2.567-3.344-5.15-5.46-7.706c-2.123-2.541-4.622-5.088-7.817-7.246c0,0-1.652-1.445-3.586-2.607
								c-1.907-1.199-4.047-2.036-4.047-2.036c-1.507-0.445-2.477-0.605-3.029-0.677c-0.554-0.068-0.696-0.05-0.589,0.018
								c0.217,0.134,1.432,0.469,2.361,0.854c0.932,0.377,1.589,0.72,0.812,0.592c-0.772-0.07-2.998-0.863-7.946-0.95
								c-3.527,0.041-5.555,0.499-6.78,0.704c-1.214,0.232-1.596,0.273-1.708,0.199c-0.224-0.123,0.656-0.723-1.804,0.01
								c-1.675,0.712-3.584,1.733-5.492,3.132c-1.916,1.39-3.828,3.132-5.653,5.127c-3.665,3.993-6.989,8.944-10.331,14.032
								C109.053,29.023,110.866,26.396,113.132,23.299z M73.12,93.518c-1.013,2.442-2.951,7.355-4.033,8.984
								C69.863,99.541,71.087,97.542,73.12,93.518z M192.742,66.7c-0.973-1.709-2.184-4.494-3.476-7.667
								C190.36,61.263,191.536,63.818,192.742,66.7z M503.98,93.943c-0.057-0.096-0.097-0.165-0.142-0.243
								C501.494,88.303,502.317,90.221,503.98,93.943z M509.065,105.048c0.596,1.076,0.619,0.97,0.453,0.474
								c-0.481-0.713-1.683-3.178-3-6.01C506.78,100.35,507.381,101.811,509.065,105.048z M339.169,173.282l-1.133,2.101
								C340.211,170.457,339.677,171.872,339.169,173.282z"/>
							<path fill="#EE327E" d="M182.056,45.824c-0.259-0.703-0.272-0.927-0.269-1.123C181.25,43.812,181.159,43.835,182.056,45.824z
								"/>
							<path fill="#EE327E" d="M178.666,48.432l0.18,0.375c0.126,0.193,0.207,0.29,0.263,0.339L178.666,48.432z"/>
							<path fill="#EE327E" d="M394.061,37.909c-1.234,2.173-1.944,3.38-2.451,4.163C391.656,42.25,392.247,41.27,394.061,37.909z"
								/>
							<path fill="#EE327E" d="M537.596,163.266l-3.421-7.042c1.62,3.425,2.095,4.693,2.834,6.457
								C537.037,162.475,536.554,161.054,537.596,163.266z"/>
							<path fill="#EE327E" d="M573.804,218.03c1.123,0.229,2.38,0.504,3.51,0.566l-0.283-0.256
								c-2.403-0.28-4.384-0.857-5.181-1.078C571.064,217.001,571.379,217.317,573.804,218.03z"/>
							<path fill="#EE327E" d="M539.229,170.499c-0.1,0.732,2.116,5.116,4.61,9.988c-0.146-0.294-0.283-0.574-0.429-0.868
								C544.631,180.813,541.879,175.677,539.229,170.499z"/>
							<path fill="#EE327E" d="M544.415,181.617c0.765,1.502,1.547,3.036,2.296,4.504
								C547.206,186.584,545.808,184.284,544.415,181.617z"/>
							<path fill="#EE327E" d="M516.099,118.872c1.041,2.392,1.18,1.247,1.672,2.648
								C519.517,123.907,509.618,106.16,516.099,118.872z"/>
							<polygon fill="#EE327E" points="539.933,175.081 539.535,173.092 537.852,170.489 							"/>
							<path fill="#EE327E" d="M521.892,135.694l3.599,7.997c0.02-0.155,0.536,0.832,1.148,2.056
								C524.373,140.843,521.938,135.443,521.892,135.694z"/>
							<path fill="#EE327E" d="M526.639,145.746c1.181,2.555,2.318,4.978,3.052,6.361
								C529.045,150.73,527.648,147.767,526.639,145.746z"/>
							<polygon fill="#EE327E" points="534.673,164.311 533.671,161.918 531.092,156.29 							"/>
							<path fill="#EE327E" d="M481.547,50.522c0,0-1.082-2.136-2.163-4.271c-1.104-2.125-2.207-4.25-2.207-4.25
								c-0.598-0.791,0.503,1.576,2.137,4.742C480.437,48.744,482.035,51.918,481.547,50.522z"/>
							<path fill="#EE327E" d="M492.599,77.301c-0.997-2.39-0.969-2.596-1.434-3.987l-0.686-0.003L492.599,77.301z"/>
							<path fill="#EE327E" d="M480.629,52.112c-0.551-0.797-6.533-12.224-1.174-1.384
								C480.039,51.518,484.288,60.096,480.629,52.112z"/>
							<polygon fill="#EE327E" points="385.899,50.307 386.957,48.117 385.888,47.983 							"/>
							<path fill="#EE327E" d="M333.789,166.205c5.02-10.181,0.573-2.708,5.172-11.872c0.903-2.515-3.756,7.49-2.794,4.927
								C333.51,165.574,331.845,168.771,333.789,166.205z"/>
							<path fill="#EE327E" d="M336.167,159.26c0.418-1.015,0.861-2.089,1.333-3.232
								C336.721,157.852,336.372,158.719,336.167,159.26z"/>
							<path fill="#EE327E" d="M560.271,224.079c-0.001,0,1.594,1.139,3.331,2.078c1.729,0.955,3.574,1.688,3.574,1.688
								s-1.174-0.517-2.288-1.137c-1.122-0.604-2.182-1.298-2.182-1.297c0,0-0.619-0.314-1.232-0.642
								C560.868,224.433,560.271,224.079,560.271,224.079z"/>
							<path fill="#EE327E" d="M574.332,228.688c0,0,0.42,0.229,0.849,0.444c0.429,0.224,0.865,0.428,0.865,0.429
								c0-0.001,1.172-0.023,2.324-0.115c1.155-0.087,2.29-0.235,2.29-0.236C578.953,229.271,575.604,229.074,574.332,228.688z"/>
							<path fill="#EE327E" d="M82.76,75.665l0.091-0.569c-0.626,0.951-1.353,2.491-2.801,5.584L82.76,75.665z"/>
							<polygon fill="#EE327E" points="85.671,74.479 84.942,76.017 86.815,73.38 							"/>
							<path fill="#EE327E" d="M135.502,7.864c-1.91,0.167-4.003,0.585-6.028,1.254c-2.026,0.67-3.966,1.59-5.649,2.566
								c3.645-2.205,7.071-2.902,9.162-3.193C135.106,8.2,136.048,8.203,135.502,7.864z"/>
						</g>
					</g>
				</g>
			</g>
		</g>
	</g>
</g>
<g id="Layer_2">
	<rect x="127.721" y="78.629" fill="#383F56" stroke="#383F56" stroke-miterlimit="10" width="12.165" height="75.383"/>
	<path fill="#383F56" stroke="#383F56" stroke-miterlimit="10" d="M213.069,116.32c0.677-27.607-4.182-37.691-21.671-37.691h-26.612
		H152.62v75.383h12.166h28.513h-1.901C208.886,154.012,213.746,143.927,213.069,116.32"/>
	<path fill="#383F56" stroke="#383F56" stroke-miterlimit="10" d="M201.352,116.121c0.417-16.988-2.572-23.193-13.334-23.193
		h-16.375h-7.485v46.385h7.485h17.545h-1.17C198.778,139.313,201.769,133.108,201.352,116.121"/>
	<rect x="270.905" y="78.629" fill="#383F56" stroke="#383F56" stroke-miterlimit="10" width="12.166" height="75.383"/>
	<rect x="223.379" y="120.008" fill="#383F56" stroke="#383F56" stroke-miterlimit="10" width="59.691" height="15.365"/>
	<path fill="#383F56" stroke="#383F56" stroke-miterlimit="10" d="M235.544,115.853v38.159h-12.165v-38.159v0.467
		c0-20.834,13.349-37.691,29.845-37.691h0.239h29.607v15.362h-29.607h-0.239c-9.774,0-17.68,9.985-17.68,22.329V115.853z"/>
	<rect x="295.641" y="78.429" fill="#383F56" stroke="#383F56" stroke-miterlimit="10" width="14.522" height="75.385"/>
	<rect x="295.641" y="138.449" fill="#383F56" stroke="#383F56" stroke-miterlimit="10" width="56.646" height="15.364"/>
	<rect x="377.914" y="78.958" fill="#383F56" stroke="#383F56" stroke-miterlimit="10" width="12.164" height="75.382"/>
	<rect x="377.914" y="78.161" fill="#383F56" stroke="#383F56" stroke-miterlimit="10" width="55.693" height="15.364"/>
	<rect x="394.636" y="108.969" fill="#383F56" stroke="#383F56" stroke-miterlimit="10" width="34.979" height="15.362"/>
	<rect x="444.004" y="138.979" fill="#383F56" stroke="#383F56" stroke-miterlimit="10" width="56.646" height="15.36"/>
	<rect x="556.282" y="78.692" fill="#383F56" stroke="#383F56" stroke-miterlimit="10" width="12.163" height="75.386"/>
	<path fill="#383F56" stroke="#383F56" stroke-miterlimit="10" d="M520.922,116.853V78.692h-12.165v38.161v-0.467
		c0,20.834,13.349,37.692,29.845,37.692h0.24h29.604v-15.362h-29.604h-0.24c-9.774,0-17.68-9.985-17.68-22.33V116.853z"/>
	<path fill="#383F56" stroke="#383F56" stroke-miterlimit="10" d="M593.481,80.038"/>
	<path fill="#383F56" stroke="#383F56" stroke-miterlimit="10" d="M644.521,154.219"/>
	<path fill="#383F56" stroke="#383F56" stroke-miterlimit="10" d="M660.639,154.219"/>
	<path fill="#383F56" stroke="#383F56" stroke-miterlimit="10" d="M661.106,79.577"/>
	<path fill="#383F56" stroke="#383F56" stroke-miterlimit="10" d="M610.2,154.219"/>
	<path fill="#383F56" stroke="#383F56" stroke-miterlimit="10" d="M593.481,155.199"/>
	<polygon fill="#383F56" stroke="#383F56" stroke-miterlimit="10" points="648.746,155.199 632.056,155.199 581.589,79.681 
		597.571,79.577 	"/>
	<polygon fill="#383F56" stroke="#383F56" stroke-miterlimit="10" points="580.942,154.726 597.633,154.726 648.101,79.207 
		632.12,79.103 	"/>
	<rect x="80.364" y="78.693" fill="#383F56" stroke="#383F56" stroke-miterlimit="10" width="12.166" height="75.385"/>
	<rect x="56.602" y="78.163" fill="#383F56" stroke="#383F56" stroke-miterlimit="10" width="59.69" height="15.361"/>
	<rect x="444.004" y="78.957" fill="#383F56" stroke="#383F56" stroke-miterlimit="10" width="14.522" height="75.386"/>
</g>
<g id="Layer_3">
	<path fill="#ECEEF0" stroke="#383F56" stroke-miterlimit="10" d="M201.454,116.121c0.417-16.988-2.572-23.192-13.334-23.192
		h-16.375h-7.485v46.385h7.485h17.545h-1.17C198.879,139.313,201.87,133.108,201.454,116.121"/>
</g>
<g id="Layer_5">
	<polygon fill="#EE327E" stroke="#EE327E" stroke-miterlimit="10" points="220.426,116.696 148.076,116.696 148.076,112.91 
		220.426,113.449 	"/>
</g>
</svg>
