<?xml version="1.0" encoding="utf-8"?>
<!-- Generator: Adobe Illustrator 16.0.0, SVG Export Plug-In . SVG Version: 6.00 Build 0)  -->
<!DOCTYPE svg PUBLIC "-//W3C//DTD SVG 1.1//EN" "http://www.w3.org/Graphics/SVG/1.1/DTD/svg11.dtd">
<svg version="1.1" xmlns="http://www.w3.org/2000/svg" xmlns:xlink="http://www.w3.org/1999/xlink" x="0px" y="0px"
	 width="726.504px" height="225.639px" viewBox="0 0 726.504 225.639" enable-background="new 0 0 726.504 225.639"
	 xml:space="preserve">
<g id="Layer_4">
	<g>
		<polygon fill="#EE327E" stroke="#EE327E" stroke-miterlimit="10" points="726.5,113.902 0.5,113.902 0.5,108.497 726.5,113.902 		
			"/>
	</g>
</g>
<g id="Layer_1">
	<g>
		<path fill="none" stroke="#EE327E" stroke-miterlimit="10" d="M574.66,225.139c-26.027-0.001-36.149-21.782-58.328-69.507
			c-5.561-11.965-11.863-25.527-19.406-40.907c-7.586-15.461-13.908-29.067-19.485-41.07c-21.095-45.389-29.889-64.31-50.176-64.501
			c-20.288,0.191-29.081,19.112-50.174,64.501c-5.579,12.003-11.902,25.609-19.486,41.071
			c-7.545,15.381-13.848,28.942-19.408,40.908c-22.179,47.724-32.301,69.505-58.328,69.505
			c-26.026-0.001-36.149-21.782-58.328-69.506c-5.561-11.966-11.863-25.528-19.408-40.908c-7.584-15.461-13.907-29.067-19.485-41.07
			c-21.093-45.389-29.887-64.31-50.175-64.501c-20.287,0.191-29.081,19.112-50.174,64.499C76.72,85.658,71.145,97.737,63.56,113.199
			h-9.272c7.545-15.38,14.606-31.225,20.167-43.19c22.001-47.342,32.139-69.155,57.707-69.501V0.503l0.621,0.004
			c25.569,0.346,35.707,22.159,57.708,69.502c5.561,11.965,11.863,25.527,19.407,40.906c7.584,15.462,13.907,29.068,19.486,41.072
			c21.2,45.619,29.975,64.501,50.484,64.501c20.509,0.001,29.284-18.881,50.484-64.5c5.579-12.004,11.901-25.609,19.486-41.072
			c7.545-15.38,13.847-28.941,19.408-40.907c22.001-47.343,32.139-69.156,57.707-69.502V0.503l0.62,0.004
			c25.569,0.346,35.707,22.159,57.71,69.502c5.56,11.965,11.861,25.526,19.405,40.906c7.585,15.462,13.907,29.067,19.486,41.072
			c21.2,45.619,29.977,64.501,50.484,64.501c20.51,0.001,29.284-18.881,50.485-64.501c5.579-12.004,10.784-23.327,18.369-38.789
			h9.558c-7.544,15.38-14.523,30.469-20.083,42.435C610.811,203.358,600.688,225.139,574.66,225.139z"/>
	</g>
</g>
<g id="Layer_2">
	<rect x="127.721" y="76.314" fill="#EE327E" stroke="#EE327E" stroke-miterlimit="10" width="12.165" height="75.383"/>
	<path fill="#EE327E" stroke="#EE327E" stroke-miterlimit="10" d="M213.069,114.005c0.677-27.607-4.182-37.691-21.671-37.691
		h-26.612H152.62v75.383h12.166h28.513h-1.901C208.886,151.697,213.746,141.612,213.069,114.005"/>
	<path fill="#EE327E" stroke="#EE327E" stroke-miterlimit="10" d="M201.352,113.806c0.417-16.988-2.572-23.193-13.334-23.193
		h-16.375h-7.485v46.385h7.485h17.545h-1.17C198.778,136.999,201.769,130.793,201.352,113.806"/>
	<rect x="270.905" y="76.314" fill="#EE327E" stroke="#EE327E" stroke-miterlimit="10" width="12.166" height="75.383"/>
	<rect x="223.379" y="117.693" fill="#EE327E" stroke="#EE327E" stroke-miterlimit="10" width="59.691" height="15.365"/>
	<path fill="#EE327E" stroke="#EE327E" stroke-miterlimit="10" d="M235.544,113.538v38.159h-12.165v-38.159v0.467
		c0-20.834,13.349-37.691,29.845-37.691h0.239h29.607v15.362h-29.607h-0.239c-9.774,0-17.68,9.985-17.68,22.329V113.538z"/>
	<rect x="295.641" y="76.114" fill="#EE327E" stroke="#EE327E" stroke-miterlimit="10" width="14.522" height="75.385"/>
	<rect x="295.641" y="136.134" fill="#EE327E" stroke="#EE327E" stroke-miterlimit="10" width="56.646" height="15.364"/>
	<rect x="377.914" y="76.643" fill="#EE327E" stroke="#EE327E" stroke-miterlimit="10" width="12.164" height="75.382"/>
	<rect x="377.914" y="75.846" fill="#EE327E" stroke="#EE327E" stroke-miterlimit="10" width="55.693" height="15.364"/>
	<rect x="394.636" y="106.654" fill="#EE327E" stroke="#EE327E" stroke-miterlimit="10" width="34.979" height="15.362"/>
	<rect x="444.004" y="136.665" fill="#EE327E" stroke="#EE327E" stroke-miterlimit="10" width="56.646" height="15.36"/>
	<rect x="556.282" y="76.377" fill="#EE327E" stroke="#EE327E" stroke-miterlimit="10" width="12.163" height="75.386"/>
	<path fill="#EE327E" stroke="#EE327E" stroke-miterlimit="10" d="M520.922,114.538V76.377h-12.165v38.161v-0.467
		c0,20.834,13.349,37.692,29.845,37.692h0.24h29.604v-15.362h-29.604h-0.24c-9.774,0-17.68-9.985-17.68-22.33V114.538z"/>
	<path fill="#EE327E" stroke="#EE327E" stroke-miterlimit="10" d="M593.481,77.723"/>
	<path fill="#EE327E" stroke="#EE327E" stroke-miterlimit="10" d="M644.521,151.904"/>
	<path fill="#FFFFFF" stroke="#EE327E" stroke-miterlimit="10" d="M660.639,151.904"/>
	<path fill="#FFFFFF" stroke="#EE327E" stroke-miterlimit="10" d="M661.106,77.262"/>
	<path fill="#EE327E" stroke="#EE327E" stroke-miterlimit="10" d="M610.2,151.904"/>
	<path fill="#EE327E" stroke="#EE327E" stroke-miterlimit="10" d="M593.481,152.884"/>
	<polygon fill="#EE327E" stroke="#EE327E" stroke-miterlimit="10" points="648.746,152.884 632.056,152.884 581.589,77.366 
		597.571,77.262 	"/>
	<polygon fill="#EE327E" stroke="#EE327E" stroke-miterlimit="10" points="580.942,152.411 597.633,152.411 648.101,76.892 
		632.12,76.788 	"/>
	<rect x="80.364" y="76.378" fill="#EE327E" stroke="#EE327E" stroke-miterlimit="10" width="12.166" height="75.385"/>
	<rect x="56.602" y="75.848" fill="#EE327E" stroke="#EE327E" stroke-miterlimit="10" width="59.69" height="15.361"/>
	<rect x="444.004" y="76.642" fill="#EE327E" stroke="#EE327E" stroke-miterlimit="10" width="14.522" height="75.386"/>
</g>
<g id="Layer_3">
	<path fill="#ECEEF0" stroke="#EE327E" stroke-miterlimit="10" d="M201.454,113.806c0.417-16.988-2.572-23.192-13.334-23.192
		h-16.375h-7.485v46.385h7.485h17.545h-1.17C198.879,136.999,201.87,130.793,201.454,113.806"/>
</g>
<g id="Layer_5">
	<polygon fill="#EE327E" stroke="#EE327E" stroke-miterlimit="10" points="220.426,113.381 148.076,113.381 148.076,109.595 
		220.426,110.134 	"/>
</g>
</svg>
